<svg width="598" height="366" viewBox="0 0 598 366" fill="none" xmlns="http://www.w3.org/2000/svg">
<path d="M150.113 15L153 17.8868L155.887 15L153 12.1132L150.113 15ZM306.887 15L304 12.1133L301.113 15L304 17.8868L306.887 15ZM153 15.5L304 15.5L304 14.5L153 14.5L153 15.5Z" fill="#446F9D" fill-opacity="0.29"/>
<path d="M595 9.11325L592.113 12L595 14.8868L597.887 12L595 9.11325ZM0.113266 362.5L3.00005 365.387L5.88683 362.5L3.00005 359.613L0.113266 362.5ZM595 362.5L595 363L595.5 363L595.5 362.5L595 362.5ZM594.5 12L594.5 362.5L595.5 362.5L595.5 12H594.5ZM595 362L3.00005 362L3.00005 363L595 363L595 362Z" fill="#446F9D" fill-opacity="0.29"/>
<path d="M348.373 19H346.932V11.2305L342.344 11.2305V19H340.902V10L348.373 10V19ZM364.053 19.2109C362.723 19.2109 361.659 18.792 360.862 17.9541C360.071 17.1104 359.676 15.9941 359.676 14.6055C359.676 13.0937 360.089 11.9131 360.915 11.0635C361.741 10.2139 362.857 9.78906 364.264 9.78906C365.605 9.78906 366.651 10.2021 367.401 11.0283C368.157 11.8545 368.535 13 368.535 14.4648C368.535 15.9004 368.128 17.0518 367.313 17.9189C366.505 18.7803 365.418 19.2109 364.053 19.2109ZM364.158 11.002C363.232 11.002 362.5 11.3184 361.961 11.9512C361.422 12.5781 361.152 13.4453 361.152 14.5527C361.152 15.6191 361.425 16.46 361.97 17.0752C362.515 17.6904 363.244 17.998 364.158 17.998C365.09 17.998 365.805 17.6963 366.303 17.0928C366.807 16.4893 367.059 15.6309 367.059 14.5176C367.059 13.3926 366.807 12.5254 366.303 11.916C365.805 11.3066 365.09 11.002 364.158 11.002ZM379.082 18.7451V17.3301C379.867 17.7695 380.784 17.9893 381.833 17.9893C383.421 17.9893 384.215 17.4854 384.215 16.4775C384.215 15.4814 383.345 14.9834 381.604 14.9834H380.717V13.7617H381.561C383.09 13.7617 383.854 13.2871 383.854 12.3379C383.854 11.9336 383.679 11.6113 383.327 11.3711C382.976 11.1309 382.495 11.0107 381.886 11.0107C381.013 11.0107 380.137 11.2305 379.258 11.6699V10.3252C380.254 9.96191 381.168 9.78027 382 9.78027C384.191 9.78027 385.287 10.5859 385.287 12.1973C385.287 12.7187 385.123 13.1699 384.795 13.5508C384.473 13.9258 384.019 14.1748 383.433 14.2979V14.3418C384.101 14.3945 384.637 14.6201 385.041 15.0186C385.445 15.417 385.647 15.9209 385.647 16.5303C385.647 17.3506 385.316 18.0039 384.654 18.4902C383.992 18.9766 383.081 19.2197 381.921 19.2197C380.685 19.2197 379.738 19.0615 379.082 18.7451ZM404.342 19H402.9V14.9131L398.312 14.9131V19H396.871V10H398.312V13.6914L402.9 13.6914V10H404.342V19ZM422.702 19H421.261V17.5937H421.226C420.599 18.6719 419.676 19.2109 418.457 19.2109C417.561 19.2109 416.857 18.9736 416.348 18.499C415.844 18.0244 415.592 17.3945 415.592 16.6094C415.592 14.9277 416.582 13.9492 418.562 13.6738L421.261 13.2959C421.261 11.7666 420.643 11.002 419.406 11.002C418.322 11.002 417.344 11.3711 416.471 12.1094V10.6328C417.355 10.0703 418.375 9.78906 419.529 9.78906C421.645 9.78906 422.702 10.9082 422.702 13.1465V19ZM421.261 14.4473L419.09 14.7461C418.422 14.8398 417.918 15.0068 417.578 15.2471C417.238 15.4814 417.068 15.9004 417.068 16.5039C417.068 16.9434 417.224 17.3037 417.534 17.585C417.851 17.8604 418.27 17.998 418.791 17.998C419.506 17.998 420.095 17.749 420.558 17.251C421.026 16.7471 421.261 16.1113 421.261 15.3437V14.4473ZM441.889 19H439.867L435.895 14.6758H435.859V19H434.418V10H435.859V14.1221H435.895L439.674 10H441.563L437.389 14.3418L441.889 19ZM456.127 19.2109C454.797 19.2109 453.733 18.792 452.937 17.9541C452.146 17.1104 451.75 15.9941 451.75 14.6055C451.75 13.0937 452.163 11.9131 452.989 11.0635C453.815 10.2139 454.932 9.78906 456.338 9.78906C457.68 9.78906 458.726 10.2021 459.476 11.0283C460.231 11.8545 460.609 13 460.609 14.4648C460.609 15.9004 460.202 17.0518 459.388 17.9189C458.579 18.7803 457.492 19.2109 456.127 19.2109ZM456.232 11.002C455.307 11.002 454.574 11.3184 454.035 11.9512C453.496 12.5781 453.227 13.4453 453.227 14.5527C453.227 15.6191 453.499 16.46 454.044 17.0752C454.589 17.6904 455.318 17.998 456.232 17.998C457.164 17.998 457.879 17.6963 458.377 17.0928C458.881 16.4893 459.133 15.6309 459.133 14.5176C459.133 13.3926 458.881 12.5254 458.377 11.916C457.879 11.3066 457.164 11.002 456.232 11.002ZM481.633 19H480.209V11.582C480.08 11.957 479.881 12.5078 479.611 13.2344L477.361 19H476.069L473.749 13.2344C473.626 12.9238 473.427 12.373 473.151 11.582V19H471.912V10H473.749L476.122 15.8711C476.292 16.2988 476.509 16.8906 476.772 17.6465L477.414 15.9062L479.717 10H481.633V19ZM501.092 19H499.791V11.8193C499.662 12.0713 499.466 12.4258 499.202 12.8828L495.045 19H493.551V10H494.869V17.0928C494.939 16.9229 495.092 16.6328 495.326 16.2227L499.598 10H501.092V19ZM522.73 19H521.307V11.582C521.178 11.957 520.979 12.5078 520.709 13.2344L518.459 19H517.167L514.847 13.2344C514.724 12.9238 514.524 12.373 514.249 11.582V19H513.01V10H514.847L517.22 15.8711C517.39 16.2988 517.606 16.8906 517.87 17.6465L518.512 15.9062L520.814 10L522.73 10V19ZM540.783 18.5869C540.092 19.0029 539.271 19.2109 538.322 19.2109C537.039 19.2109 536.002 18.7949 535.211 17.9629C534.426 17.125 534.033 16.041 534.033 14.7109C534.033 13.2285 534.458 12.0391 535.308 11.1426C536.157 10.2402 537.291 9.78906 538.709 9.78906C539.5 9.78906 540.197 9.93555 540.801 10.2285V11.7051C540.133 11.2363 539.418 11.002 538.656 11.002C537.736 11.002 536.98 11.333 536.389 11.9951C535.803 12.6514 535.51 13.5156 535.51 14.5879C535.51 15.6426 535.785 16.4746 536.336 17.084C536.893 17.6934 537.637 17.998 538.568 17.998C539.354 17.998 540.092 17.7373 540.783 17.2158V18.5869ZM558.115 19H556.674V15.2734H555.47C554.89 15.2734 554.362 15.7422 553.888 16.6797L552.719 19H551.049L552.561 16.2227C552.912 15.5781 553.337 15.1533 553.835 14.9482C553.132 14.8545 552.596 14.5967 552.227 14.1748C551.857 13.7529 551.673 13.2256 551.673 12.5928C551.673 11.7959 551.96 11.166 552.534 10.7031C553.114 10.2344 553.926 10 554.969 10H558.115V19ZM556.674 14.0693V11.2305H554.969C553.756 11.2305 553.149 11.6904 553.149 12.6104C553.149 13.583 553.738 14.0693 554.916 14.0693H556.674Z" fill="#2F2F2F" fill-opacity="0.25"/>
</svg>
