<svg width="17" height="17" viewBox="0 0 17 17" fill="none" xmlns="http://www.w3.org/2000/svg">
<g opacity="0.8" clip-path="url(#clip0_149:562)">
<path d="M16.0323 2.78913C15.7923 2.5488 15.5074 2.42862 15.1786 2.42862H13.9644V1.51787C13.9644 1.10054 13.8157 0.743185 13.5185 0.445938C13.2211 0.14869 12.8639 0 12.4464 0H11.8394C11.4219 0 11.0646 0.14869 10.7674 0.445971C10.47 0.743185 10.3214 1.10057 10.3214 1.5179V2.42865H6.67876V1.5179C6.67876 1.10057 6.53007 0.743219 6.23279 0.445971C5.93557 0.14869 5.57825 0 5.16075 0H4.55367C4.13627 0 3.77892 0.14869 3.48163 0.445971C3.18442 0.743185 3.0357 1.10057 3.0357 1.5179V2.42865H1.82152C1.49257 2.42865 1.20802 2.54883 0.967689 2.78916C0.727359 3.02946 0.607178 3.31415 0.607178 3.64299V15.7859C0.607178 16.1145 0.727359 16.3991 0.967689 16.6396C1.20799 16.8798 1.49254 17 1.82152 17H15.1784C15.5072 17 15.7921 16.8799 16.0321 16.6396C16.2725 16.3992 16.3927 16.1144 16.3927 15.7859V3.64296C16.3926 3.31402 16.2726 3.02946 16.0323 2.78913ZM4.55357 15.7857H1.82152V13.0534H4.55357V15.7857ZM4.55357 12.4465H1.82152V9.41091H4.55357V12.4465ZM4.55357 8.80349H1.82152V6.07148H4.55357V8.80349ZM4.34025 4.46347C4.28014 4.40336 4.25014 4.33235 4.25014 4.25005V1.518C4.25014 1.4358 4.28014 1.36459 4.34025 1.30459C4.40036 1.24448 4.47136 1.21448 4.55367 1.21448H5.16075C5.24296 1.21448 5.31416 1.24448 5.37417 1.30459C5.43428 1.36463 5.46435 1.4358 5.46435 1.518V4.25005C5.46435 4.33239 5.43415 4.40339 5.37417 4.46347C5.31413 4.52357 5.24306 4.55358 5.16075 4.55358H4.55367C4.47146 4.55361 4.40036 4.52357 4.34025 4.46347ZM8.19643 15.7857H5.16065V13.0534H8.19643V15.7857ZM8.19643 12.4465H5.16065V9.41091H8.19643V12.4465ZM8.19643 8.80349H5.16065V6.07148H8.19643V8.80349ZM11.8394 15.7857H8.80368V13.0534H11.8394V15.7857ZM11.8394 12.4465H8.80368V9.41091H11.8394V12.4465ZM11.8394 8.80349H8.80368V6.07148H11.8394V8.80349ZM11.6259 4.46347C11.5658 4.40336 11.5359 4.33235 11.5359 4.25005V1.518C11.5359 1.4358 11.5658 1.36459 11.6259 1.30459C11.6859 1.24448 11.7571 1.21448 11.8394 1.21448H12.4464C12.5287 1.21448 12.5998 1.24448 12.66 1.30459C12.72 1.36463 12.7499 1.4358 12.7499 1.518V4.25005C12.7499 4.33239 12.7199 4.40339 12.66 4.46347C12.5999 4.52357 12.5287 4.55358 12.4464 4.55358H11.8394C11.7571 4.55361 11.6857 4.52357 11.6259 4.46347ZM15.1784 15.7857H12.4462V13.0534H15.1784V15.7857ZM15.1784 12.4465H12.4462V9.41091H15.1784V12.4465ZM15.1784 8.80349H12.4462V6.07148H15.1784V8.80349Z" fill="white"/>
</g>
<defs>
<clipPath id="clip0_149:562">
<rect width="17" height="17" fill="white"/>
</clipPath>
</defs>
</svg>
