<svg width="590" height="466" viewBox="0 0 590 466" fill="none" xmlns="http://www.w3.org/2000/svg">
<path d="M3.00013 51.3869L0.113346 48.5002L3.00013 45.6134L5.88691 48.5002L3.00013 51.3869ZM3.00016 411.613L5.88694 414.5L3.00016 417.387L0.113378 414.5L3.00016 411.613ZM589.144 465L589.644 465L589.644 465.5L589.144 465.5L589.144 465ZM589.144 1L589.144 0.5L589.644 0.5L589.644 1H589.144ZM3.00012 1.00005L2.50012 1.00005L2.50012 0.500051L3.00012 0.500051L3.00012 1.00005ZM3.00016 465L3.00016 465.5L2.50016 465.5L2.50016 465L3.00016 465ZM589.644 1L589.644 465L588.644 465L588.644 1H589.644ZM2.50013 48.5002L2.50012 1.00005L3.50012 1.00005L3.50013 48.5002L2.50013 48.5002ZM3.00012 0.500051L589.144 0.5L589.144 1.5L3.00012 1.50005L3.00012 0.500051ZM589.144 465.5L3.00016 465.5L3.00016 464.5L589.144 464.5L589.144 465.5ZM2.50016 465L2.50016 414.5L3.50016 414.5L3.50016 465L2.50016 465Z" fill="#446F9D" fill-opacity="0.29"/>
</svg>
