<svg width="615" height="146" viewBox="0 0 615 146" fill="none" xmlns="http://www.w3.org/2000/svg">
<path d="M434.605 16.7783H433.384V13.5H426.687V16.7783H425.456V12.2783H426.256C427.791 10.0635 428.57 7.4707 428.594 4.5H433.27V12.2783H434.605V16.7783ZM431.828 12.2783V5.72168H429.833C429.675 8.14746 428.992 10.333 427.785 12.2783H431.828ZM452.166 13.5H450.733V5.72168H448.642C448.401 8.63379 447.988 10.6787 447.402 11.8564C446.822 13.0342 446.04 13.623 445.056 13.623C444.757 13.623 444.499 13.582 444.282 13.5V12.2607C444.487 12.3662 444.71 12.4189 444.95 12.4189C446.239 12.4189 447.068 9.7793 447.438 4.5H452.166V13.5ZM470.245 13.5H468.804V9.77344L467.6 9.77344C467.02 9.77344 466.492 10.2422 466.018 11.1797L464.849 13.5H463.179L464.69 10.7227C465.042 10.0781 465.467 9.65332 465.965 9.44824C465.262 9.35449 464.726 9.09668 464.356 8.6748C463.987 8.25293 463.803 7.72559 463.803 7.09277C463.803 6.2959 464.09 5.66602 464.664 5.20312C465.244 4.73437 466.056 4.5 467.099 4.5L470.245 4.5V13.5ZM468.804 8.56934V5.73047L467.099 5.73047C465.886 5.73047 465.279 6.19043 465.279 7.11035C465.279 8.08301 465.868 8.56934 467.046 8.56934L468.804 8.56934ZM503.046 0.0703125V1.42383C502.806 1.59961 502.419 1.73145 501.886 1.81934C500.567 2.01855 499.645 2.21191 499.117 2.39941C498.596 2.58105 498.165 2.97363 497.825 3.57715C497.491 4.18066 497.277 5.0625 497.184 6.22266H497.219C497.922 5.20312 498.924 4.69336 500.225 4.69336C501.414 4.69336 502.372 5.10059 503.099 5.91504C503.825 6.72949 504.188 7.80469 504.188 9.14062C504.188 10.5176 503.808 11.625 503.046 12.4629C502.29 13.2949 501.271 13.7109 499.987 13.7109C498.604 13.7109 497.538 13.2217 496.788 12.2432C496.044 11.2588 495.672 9.85547 495.672 8.0332C495.672 6.61523 495.807 5.41406 496.076 4.42969C496.346 3.43945 496.718 2.69531 497.192 2.19727C497.673 1.69922 498.203 1.35645 498.783 1.16895C499.369 0.981445 500.371 0.761719 501.789 0.509766C502.352 0.380859 502.771 0.234375 503.046 0.0703125ZM497.166 7.64648V8.89453C497.172 9.36328 497.242 9.82324 497.377 10.2744C497.512 10.7256 497.705 11.124 497.957 11.4697C498.209 11.8154 498.505 12.0732 498.845 12.2432C499.19 12.4131 499.583 12.498 500.022 12.498C500.825 12.498 501.473 12.1992 501.965 11.6016C502.463 10.998 502.712 10.2275 502.712 9.29004C502.712 8.25879 502.457 7.44141 501.947 6.83789C501.443 6.22852 500.761 5.92383 499.899 5.92383C498.692 5.92383 497.781 6.49805 497.166 7.64648ZM522.074 13.5H520.642V5.72168H518.55C518.31 8.63379 517.896 10.6787 517.311 11.8564C516.73 13.0342 515.948 13.623 514.964 13.623C514.665 13.623 514.407 13.582 514.19 13.5V12.2607C514.396 12.3662 514.618 12.4189 514.858 12.4189C516.147 12.4189 516.977 9.7793 517.346 4.5H522.074V13.5ZM541.542 13.5H540.241V6.31934C540.112 6.57129 539.916 6.92578 539.652 7.38281L535.495 13.5H534.001V4.5H535.319V11.5928C535.39 11.4229 535.542 11.1328 535.776 10.7227L540.048 4.5H541.542V13.5ZM552.704 13.2451V11.8301C553.489 12.2695 554.406 12.4893 555.455 12.4893C557.043 12.4893 557.837 11.9854 557.837 10.9775C557.837 9.98145 556.967 9.4834 555.227 9.4834H554.339V8.26172H555.183C556.712 8.26172 557.477 7.78711 557.477 6.83789C557.477 6.43359 557.301 6.11133 556.949 5.87109C556.598 5.63086 556.117 5.51074 555.508 5.51074C554.635 5.51074 553.759 5.73047 552.88 6.16992V4.8252C553.876 4.46191 554.79 4.28027 555.622 4.28027C557.813 4.28027 558.909 5.08594 558.909 6.69727C558.909 7.21875 558.745 7.66992 558.417 8.05078C558.095 8.42578 557.641 8.6748 557.055 8.79785V8.8418C557.723 8.89453 558.259 9.12012 558.663 9.51855C559.067 9.91699 559.27 10.4209 559.27 11.0303C559.27 11.8506 558.938 12.5039 558.276 12.9902C557.614 13.4766 556.703 13.7197 555.543 13.7197C554.307 13.7197 553.36 13.5615 552.704 13.2451ZM577.964 13.5H575.942L571.97 9.17578H571.935V13.5H570.493V4.5H571.935V8.62207H571.97L575.749 4.5H577.639L573.464 8.8418L577.964 13.5ZM595.981 13.5H594.681V6.31934C594.552 6.57129 594.355 6.92578 594.092 7.38281L589.935 13.5H588.44V4.5H589.759V11.5928C589.829 11.4229 589.981 11.1328 590.216 10.7227L594.487 4.5H595.981V13.5ZM614.474 4.5L611.45 9.05273L614.421 13.5H612.742L610.976 10.582C610.864 10.4004 610.732 10.1719 610.58 9.89648H610.545C610.516 9.94922 610.378 10.1777 610.132 10.582L608.33 13.5H606.669L609.736 9.08789L606.801 4.5H608.479L610.22 7.57617C610.349 7.80469 610.475 8.03906 610.598 8.2793H610.633L612.883 4.5L614.474 4.5Z" fill="#2F2F2F" fill-opacity="0.25"/>
<path d="M3 145.387L0.11322 142.5L3 139.613L5.88675 142.5L3 145.387ZM392.887 8.5L390 11.3867L387.113 8.5L390 5.61325L392.887 8.5ZM2.99999 8.5L2.49999 8.5L2.49999 8L2.99999 8L2.99999 8.5ZM2.5 142.5L2.49999 8.5L3.49999 8.5L3.5 142.5L2.5 142.5ZM2.99999 8L390 8L390 9L2.99999 9L2.99999 8Z" fill="#446F9D" fill-opacity="0.29"/>
</svg>
