<svg width="614" height="201" viewBox="0 0 614 201" fill="none" xmlns="http://www.w3.org/2000/svg">
<path d="M10 115.077L10 116.519L2.23047 116.519L2.23047 121.106L10 121.106L10 122.548L1 122.548L1 115.077L10 115.077ZM10.2109 99.3975C10.2109 100.728 9.79199 101.791 8.9541 102.588C8.11035 103.379 6.99414 103.774 5.60547 103.774C4.09375 103.774 2.91309 103.361 2.06348 102.535C1.21387 101.709 0.789063 100.593 0.789063 99.1865C0.789063 97.8447 1.20215 96.7988 2.02832 96.0488C2.85449 95.293 4 94.915 5.46484 94.915C6.90039 94.915 8.05176 95.3223 8.91895 96.1367C9.78027 96.9453 10.2109 98.0322 10.2109 99.3975ZM2.00195 99.292C2.00195 100.218 2.31836 100.95 2.95117 101.489C3.57813 102.028 4.44531 102.298 5.55273 102.298C6.61914 102.298 7.45996 102.025 8.0752 101.48C8.69043 100.936 8.99805 100.206 8.99805 99.292C8.99805 98.3604 8.69629 97.6455 8.09277 97.1475C7.48926 96.6436 6.63086 96.3916 5.51758 96.3916C4.39258 96.3916 3.52539 96.6436 2.91602 97.1475C2.30664 97.6455 2.00195 98.3604 2.00195 99.292ZM13.2783 75.7637L13.2783 76.9854L10 76.9854L10 83.6826L13.2783 83.6826L13.2783 84.9131L8.77832 84.9131L8.77832 84.1133C6.56348 82.5781 3.9707 81.7988 1 81.7754L1 77.0996L8.77832 77.0996L8.77832 75.7637L13.2783 75.7637ZM8.77832 78.541L2.22168 78.541L2.22168 80.5361C4.64746 80.6943 6.83301 81.377 8.77832 82.584L8.77832 78.541ZM10 58.3262L10 59.7676L8.59375 59.7676L8.59375 59.8027C9.67188 60.4297 10.2109 61.3525 10.2109 62.5713C10.2109 63.4678 9.97363 64.1709 9.49902 64.6807C9.02441 65.1846 8.39453 65.4365 7.60938 65.4365C5.92774 65.4365 4.94922 64.4463 4.67383 62.4658L4.2959 59.7676C2.7666 59.7676 2.00195 60.3857 2.00195 61.6221C2.00195 62.7061 2.37109 63.6846 3.10938 64.5576L1.63281 64.5576C1.07031 63.6729 0.789063 62.6533 0.789063 61.499C0.789063 59.3838 1.9082 58.3262 4.14649 58.3262L10 58.3262ZM5.44727 59.7676L5.74609 61.9385C5.83984 62.6064 6.00684 63.1104 6.24707 63.4502C6.48145 63.79 6.90039 63.96 7.50391 63.96C7.94336 63.96 8.30371 63.8047 8.58496 63.4941C8.86035 63.1777 8.99805 62.7588 8.99805 62.2373C8.99805 61.5225 8.74902 60.9336 8.25098 60.4707C7.74707 60.002 7.11133 59.7676 6.34375 59.7676L5.44727 59.7676ZM8.69922 45.1338L8.69922 45.1689L14.1396 45.1689L14.1396 46.6104L1 46.6104L1 45.1689L2.58203 45.1689L2.58203 45.1338C1.38672 44.4248 0.789063 43.3877 0.789063 42.0225C0.789063 40.8623 1.19336 39.957 2.00195 39.3066C2.80469 38.6563 3.88281 38.3311 5.23633 38.3311C6.74219 38.3311 7.94922 38.6973 8.85742 39.4297C9.75977 40.1621 10.2109 41.1641 10.2109 42.4355C10.2109 43.6016 9.70703 44.501 8.69922 45.1338ZM5.06934 45.1689L6.32617 45.1689C7.07031 45.1689 7.70313 44.9287 8.22461 44.4482C8.74024 43.9619 8.99805 43.3467 8.99805 42.6025C8.99805 41.7295 8.66406 41.0469 7.99609 40.5547C7.32813 40.0566 6.39942 39.8076 5.20996 39.8076C4.20801 39.8076 3.42285 40.0391 2.85449 40.502C2.28613 40.9648 2.00195 41.5918 2.00195 42.3828C2.00195 43.2207 2.29492 43.8945 2.88086 44.4043C3.46094 44.9141 4.19043 45.1689 5.06934 45.1689ZM10.2109 23.2666C10.2109 24.5967 9.79199 25.6602 8.9541 26.457C8.11035 27.248 6.99414 27.6436 5.60547 27.6436C4.09375 27.6436 2.91309 27.2305 2.06348 26.4043C1.21387 25.5781 0.789064 24.4619 0.789064 23.0557C0.789064 21.7139 1.20215 20.668 2.02832 19.918C2.85449 19.1621 4 18.7842 5.46485 18.7842C6.90039 18.7842 8.05176 19.1914 8.91895 20.0059C9.78027 20.8145 10.2109 21.9014 10.2109 23.2666ZM2.00195 23.1611C2.00195 24.0869 2.31836 24.8193 2.95117 25.3584C3.57813 25.8975 4.44531 26.167 5.55274 26.167C6.61914 26.167 7.45996 25.8945 8.0752 25.3496C8.69043 24.8047 8.99805 24.0752 8.99805 23.1611C8.99805 22.2295 8.69629 21.5146 8.09277 21.0166C7.48926 20.5127 6.63086 20.2607 5.51758 20.2607C4.39258 20.2607 3.52539 20.5127 2.91602 21.0166C2.30664 21.5146 2.00195 22.2295 2.00195 23.1611ZM10 0.0107424L10 2.03223L5.67578 6.00488L5.67578 6.04004L10 6.04004L10 7.48145L1 7.48145L1 6.04004L5.12207 6.04004L5.12207 6.00488L1 2.22559L1 0.335938L5.3418 4.51074L10 0.0107424Z" fill="#2F2F2F" fill-opacity="0.25"/>
<path d="M5 151.613L2.11325 154.5L5 157.387L7.88675 154.5L5 151.613ZM447.887 196L445 193.113L442.113 196L445 198.887L447.887 196ZM5 196H4.5V196.5H5V196ZM4.5 154.5L4.5 196H5.5L5.5 154.5H4.5ZM5 196.5L445 196.5V195.5L5 195.5V196.5Z" fill="#446F9D" fill-opacity="0.29"/>
<path d="M495.972 200.5H494.53V192.73H489.942V200.5H488.501V191.5H495.972V200.5ZM511.651 200.711C510.321 200.711 509.258 200.292 508.461 199.454C507.67 198.61 507.274 197.494 507.274 196.105C507.274 194.594 507.688 193.413 508.514 192.563C509.34 191.714 510.456 191.289 511.862 191.289C513.204 191.289 514.25 191.702 515 192.528C515.756 193.354 516.134 194.5 516.134 195.965C516.134 197.4 515.727 198.552 514.912 199.419C514.104 200.28 513.017 200.711 511.651 200.711ZM511.757 192.502C510.831 192.502 510.099 192.818 509.56 193.451C509.021 194.078 508.751 194.945 508.751 196.053C508.751 197.119 509.023 197.96 509.568 198.575C510.113 199.19 510.843 199.498 511.757 199.498C512.688 199.498 513.403 199.196 513.901 198.593C514.405 197.989 514.657 197.131 514.657 196.018C514.657 194.893 514.405 194.025 513.901 193.416C513.403 192.807 512.688 192.502 511.757 192.502ZM533.571 200.087C532.88 200.503 532.06 200.711 531.11 200.711C529.827 200.711 528.79 200.295 527.999 199.463C527.214 198.625 526.821 197.541 526.821 196.211C526.821 194.729 527.246 193.539 528.096 192.643C528.945 191.74 530.079 191.289 531.497 191.289C532.288 191.289 532.985 191.436 533.589 191.729V193.205C532.921 192.736 532.206 192.502 531.444 192.502C530.524 192.502 529.769 192.833 529.177 193.495C528.591 194.151 528.298 195.016 528.298 196.088C528.298 197.143 528.573 197.975 529.124 198.584C529.681 199.193 530.425 199.498 531.356 199.498C532.142 199.498 532.88 199.237 533.571 198.716V200.087ZM552.222 200.5H550.78V192.73H546.192V200.5H544.751V191.5H552.222V200.5ZM571.373 196.36H565.019C565.042 197.362 565.312 198.136 565.827 198.681C566.343 199.226 567.052 199.498 567.954 199.498C568.968 199.498 569.899 199.164 570.749 198.496V199.85C569.958 200.424 568.912 200.711 567.611 200.711C566.34 200.711 565.341 200.304 564.614 199.489C563.888 198.669 563.524 197.518 563.524 196.035C563.524 194.635 563.92 193.495 564.711 192.616C565.508 191.731 566.495 191.289 567.673 191.289C568.851 191.289 569.762 191.67 570.406 192.432C571.051 193.193 571.373 194.251 571.373 195.604V196.36ZM569.896 195.139C569.891 194.307 569.688 193.659 569.29 193.196C568.897 192.733 568.35 192.502 567.646 192.502C566.967 192.502 566.39 192.745 565.915 193.231C565.44 193.718 565.147 194.354 565.036 195.139H569.896ZM594.04 200.5H582.562V191.5H584.003V199.27H587.589V191.5H589.021V199.27H592.599V191.5H594.04V200.5ZM613.499 200.5H612.198V193.319C612.069 193.571 611.873 193.926 611.609 194.383L607.452 200.5H605.958V191.5H607.276V198.593C607.347 198.423 607.499 198.133 607.733 197.723L612.005 191.5H613.499V200.5Z" fill="#2F2F2F" fill-opacity="0.25"/>
</svg>
