<svg width="448" height="366" viewBox="0 0 448 366" fill="none" xmlns="http://www.w3.org/2000/svg">
<path d="M0.113737 15L3.00049 17.8868L5.88724 15L3.00049 12.1132L0.113737 15ZM156.887 15L154 12.1133L151.114 15L154 17.8868L156.887 15ZM3.00049 15.5L154 15.5L154 14.5L3.00049 14.5L3.00049 15.5Z" fill="#446F9D" fill-opacity="0.29"/>
<path d="M445 9.11325L447.887 12L445 14.8868L442.113 12L445 9.11325ZM446.295 365.58L442.42 364.295L443.705 360.42L447.58 361.705L446.295 365.58ZM445 363L444.553 363.224L444.5 363.118L444.5 363L445 363ZM445.5 12L445.5 363L444.5 363L444.5 12L445.5 12ZM445.447 362.776L445.447 362.776L444.553 363.224L444.553 363.224L445.447 362.776Z" fill="#446F9D" fill-opacity="0.29"/>
<path d="M198.374 19H196.932V11.2305L192.344 11.2305V19H190.903V10L198.374 10V19ZM214.053 19.2109C212.723 19.2109 211.66 18.792 210.863 17.9541C210.072 17.1104 209.676 15.9941 209.676 14.6055C209.676 13.0937 210.089 11.9131 210.916 11.0635C211.742 10.2139 212.858 9.78906 214.264 9.78906C215.606 9.78906 216.652 10.2021 217.402 11.0283C218.158 11.8545 218.536 13 218.536 14.4648C218.536 15.9004 218.128 17.0518 217.314 17.9189C216.505 18.7803 215.418 19.2109 214.053 19.2109ZM214.159 11.002C213.233 11.002 212.5 11.3184 211.961 11.9512C211.422 12.5781 211.153 13.4453 211.153 14.5527C211.153 15.6191 211.425 16.46 211.97 17.0752C212.515 17.6904 213.245 17.998 214.159 17.998C215.09 17.998 215.805 17.6963 216.303 17.0928C216.807 16.4893 217.059 15.6309 217.059 14.5176C217.059 13.3926 216.807 12.5254 216.303 11.916C215.805 11.3066 215.09 11.002 214.159 11.002ZM229.083 18.7451V17.3301C229.868 17.7695 230.785 17.9893 231.833 17.9893C233.421 17.9893 234.215 17.4854 234.215 16.4775C234.215 15.4814 233.345 14.9834 231.605 14.9834H230.717V13.7617H231.561C233.09 13.7617 233.855 13.2871 233.855 12.3379C233.855 11.9336 233.679 11.6113 233.328 11.3711C232.976 11.1309 232.496 11.0107 231.886 11.0107C231.013 11.0107 230.137 11.2305 229.258 11.6699V10.3252C230.254 9.96191 231.168 9.78027 232 9.78027C234.192 9.78027 235.288 10.5859 235.288 12.1973C235.288 12.7187 235.124 13.1699 234.795 13.5508C234.473 13.9258 234.019 14.1748 233.433 14.2979V14.3418C234.101 14.3945 234.637 14.6201 235.042 15.0186C235.446 15.417 235.648 15.9209 235.648 16.5303C235.648 17.3506 235.317 18.0039 234.655 18.4902C233.993 18.9766 233.082 19.2197 231.921 19.2197C230.685 19.2197 229.739 19.0615 229.083 18.7451ZM254.342 19H252.901V14.9131L248.313 14.9131V19H246.872V10H248.313V13.6914L252.901 13.6914V10H254.342V19ZM272.703 19H271.261V17.5937H271.226C270.599 18.6719 269.676 19.2109 268.458 19.2109C267.561 19.2109 266.858 18.9736 266.348 18.499C265.844 18.0244 265.592 17.3945 265.592 16.6094C265.592 14.9277 266.583 13.9492 268.563 13.6738L271.261 13.2959C271.261 11.7666 270.643 11.002 269.407 11.002C268.323 11.002 267.344 11.3711 266.471 12.1094V10.6328C267.356 10.0703 268.375 9.78906 269.53 9.78906C271.645 9.78906 272.703 10.9082 272.703 13.1465V19ZM271.261 14.4473L269.09 14.7461C268.422 14.8398 267.918 15.0068 267.579 15.2471C267.239 15.4814 267.069 15.9004 267.069 16.5039C267.069 16.9434 267.224 17.3037 267.535 17.585C267.851 17.8604 268.27 17.998 268.792 17.998C269.506 17.998 270.095 17.749 270.558 17.251C271.027 16.7471 271.261 16.1113 271.261 15.3437V14.4473ZM291.889 19H289.868L285.895 14.6758H285.86V19H284.418V10H285.86V14.1221H285.895L289.674 10H291.564L287.389 14.3418L291.889 19ZM306.127 19.2109C304.797 19.2109 303.734 18.792 302.937 17.9541C302.146 17.1104 301.75 15.9941 301.75 14.6055C301.75 13.0937 302.164 11.9131 302.99 11.0635C303.816 10.2139 304.932 9.78906 306.338 9.78906C307.68 9.78906 308.726 10.2021 309.476 11.0283C310.232 11.8545 310.61 13 310.61 14.4648C310.61 15.9004 310.203 17.0518 309.388 17.9189C308.58 18.7803 307.493 19.2109 306.127 19.2109ZM306.233 11.002C305.307 11.002 304.575 11.3184 304.036 11.9512C303.497 12.5781 303.227 13.4453 303.227 14.5527C303.227 15.6191 303.5 16.46 304.044 17.0752C304.589 17.6904 305.319 17.998 306.233 17.998C307.165 17.998 307.879 17.6963 308.377 17.0928C308.881 16.4893 309.133 15.6309 309.133 14.5176C309.133 13.3926 308.881 12.5254 308.377 11.916C307.879 11.3066 307.165 11.002 306.233 11.002ZM331.633 19H330.209V11.582C330.081 11.957 329.881 12.5078 329.612 13.2344L327.362 19H326.07L323.75 13.2344C323.626 12.9238 323.427 12.373 323.152 11.582V19H321.913V10H323.75L326.123 15.8711C326.292 16.2988 326.509 16.8906 326.773 17.6465L327.415 15.9062L329.717 10H331.633V19ZM351.092 19H349.792V11.8193C349.663 12.0713 349.466 12.4258 349.203 12.8828L345.045 19H343.551V10H344.87V17.0928C344.94 16.9229 345.092 16.6328 345.327 16.2227L349.598 10H351.092V19ZM372.731 19H371.307V11.582C371.178 11.957 370.979 12.5078 370.709 13.2344L368.459 19H367.167L364.847 13.2344C364.724 12.9238 364.525 12.373 364.25 11.582V19H363.01V10H364.847L367.22 15.8711C367.39 16.2988 367.607 16.8906 367.871 17.6465L368.512 15.9062L370.815 10L372.731 10V19ZM390.784 18.5869C390.092 19.0029 389.272 19.2109 388.323 19.2109C387.04 19.2109 386.002 18.7949 385.211 17.9629C384.426 17.125 384.034 16.041 384.034 14.7109C384.034 13.2285 384.458 12.0391 385.308 11.1426C386.158 10.2402 387.292 9.78906 388.709 9.78906C389.5 9.78906 390.198 9.93555 390.801 10.2285V11.7051C390.133 11.2363 389.418 11.002 388.657 11.002C387.737 11.002 386.981 11.333 386.389 11.9951C385.803 12.6514 385.51 13.5156 385.51 14.5879C385.51 15.6426 385.786 16.4746 386.336 17.084C386.893 17.6934 387.637 17.998 388.569 17.998C389.354 17.998 390.092 17.7373 390.784 17.2158V18.5869ZM408.116 19H406.674V15.2734H405.47C404.89 15.2734 404.363 15.7422 403.888 16.6797L402.719 19H401.049L402.561 16.2227C402.913 15.5781 403.337 15.1533 403.835 14.9482C403.132 14.8545 402.596 14.5967 402.227 14.1748C401.858 13.7529 401.673 13.2256 401.673 12.5928C401.673 11.7959 401.96 11.166 402.535 10.7031C403.115 10.2344 403.926 10 404.969 10H408.116V19ZM406.674 14.0693V11.2305H404.969C403.756 11.2305 403.15 11.6904 403.15 12.6104C403.15 13.583 403.739 14.0693 404.917 14.0693H406.674Z" fill="#2F2F2F" fill-opacity="0.25"/>
</svg>
