<svg width="897" height="562" viewBox="0 0 897 562" fill="none" xmlns="http://www.w3.org/2000/svg">
<path d="M570.883 19V10L574.803 10C575.688 10 576.385 10.1963 576.895 10.5889C577.41 10.9814 577.668 11.5176 577.668 12.1973C577.668 13.3633 577.094 14.0723 575.945 14.3242C577.322 14.5 578.011 15.1943 578.011 16.4072C578.011 17.1396 577.727 17.7549 577.158 18.2529C576.596 18.751 575.896 19 575.058 19H570.883ZM572.324 11.2305V13.7617H574.486C575.646 13.7617 576.227 13.3105 576.227 12.4082C576.227 11.623 575.705 11.2305 574.662 11.2305L572.324 11.2305ZM572.324 14.9922V17.7695H574.82C575.986 17.7695 576.569 17.2979 576.569 16.3545C576.569 15.4463 575.916 14.9922 574.609 14.9922L572.324 14.9922ZM596.898 19H595.457V11.2305H590.869V19H589.428V10L596.898 10V19ZM616.05 14.8604H609.695C609.719 15.8623 609.988 16.6357 610.504 17.1807C611.02 17.7256 611.729 17.998 612.631 17.998C613.645 17.998 614.576 17.6641 615.426 16.9961V18.3496C614.635 18.9238 613.589 19.2109 612.288 19.2109C611.017 19.2109 610.018 18.8037 609.291 17.9893C608.564 17.1689 608.201 16.0176 608.201 14.5352C608.201 13.1348 608.597 11.9951 609.388 11.1162C610.185 10.2314 611.172 9.78906 612.35 9.78906C613.527 9.78906 614.438 10.1699 615.083 10.9316C615.728 11.6934 616.05 12.751 616.05 14.1045V14.8604ZM614.573 13.6387C614.567 12.8066 614.365 12.1592 613.967 11.6963C613.574 11.2334 613.026 11.002 612.323 11.002C611.644 11.002 611.066 11.2451 610.592 11.7314C610.117 12.2178 609.824 12.8535 609.713 13.6387H614.573ZM634.489 19H633.057V15.3789C632.002 15.9531 631.029 16.2402 630.139 16.2402C628.123 16.2402 627.115 15.1738 627.115 13.041V10H628.557V12.9707C628.557 14.2891 629.125 14.9482 630.262 14.9482C631.129 14.9482 632.061 14.6963 633.057 14.1924V10H634.489V19ZM653.649 14.8604L647.295 14.8604C647.318 15.8623 647.588 16.6357 648.104 17.1807C648.619 17.7256 649.328 17.998 650.23 17.998C651.244 17.998 652.176 17.6641 653.025 16.9961V18.3496C652.234 18.9238 651.188 19.2109 649.888 19.2109C648.616 19.2109 647.617 18.8037 646.891 17.9893C646.164 17.1689 645.801 16.0176 645.801 14.5352C645.801 13.1348 646.196 11.9951 646.987 11.1162C647.784 10.2314 648.771 9.78906 649.949 9.78906C651.127 9.78906 652.038 10.1699 652.683 10.9316C653.327 11.6934 653.649 12.751 653.649 14.1045V14.8604ZM652.173 13.6387C652.167 12.8066 651.965 12.1592 651.566 11.6963C651.174 11.2334 650.626 11.002 649.923 11.002C649.243 11.002 648.666 11.2451 648.191 11.7314C647.717 12.2178 647.424 12.8535 647.312 13.6387L652.173 13.6387ZM670.489 11.2305H667.791V19H666.35V11.2305H663.643V10H670.489V11.2305ZM687.786 19H686.354V11.2217L684.262 11.2217C684.021 14.1338 683.608 16.1787 683.022 17.3564C682.442 18.5342 681.66 19.123 680.676 19.123C680.377 19.123 680.119 19.082 679.902 19V17.7607C680.107 17.8662 680.33 17.9189 680.57 17.9189C681.859 17.9189 682.688 15.2793 683.058 10L687.786 10V19ZM706.946 14.8604H700.592C700.615 15.8623 700.885 16.6357 701.4 17.1807C701.916 17.7256 702.625 17.998 703.527 17.998C704.541 17.998 705.473 17.6641 706.322 16.9961V18.3496C705.531 18.9238 704.485 19.2109 703.185 19.2109C701.913 19.2109 700.914 18.8037 700.188 17.9893C699.461 17.1689 699.098 16.0176 699.098 14.5352C699.098 13.1348 699.493 11.9951 700.284 11.1162C701.081 10.2314 702.068 9.78906 703.246 9.78906C704.424 9.78906 705.335 10.1699 705.979 10.9316C706.624 11.6934 706.946 12.751 706.946 14.1045V14.8604ZM705.47 13.6387C705.464 12.8066 705.262 12.1592 704.863 11.6963C704.471 11.2334 703.923 11.002 703.22 11.002C702.54 11.002 701.963 11.2451 701.488 11.7314C701.014 12.2178 700.721 12.8535 700.609 13.6387H705.47ZM725.605 19H724.164V14.9131H719.576V19H718.135V10H719.576V13.6914H724.164V10H725.605V19ZM745.064 19H743.764V11.8193C743.635 12.0713 743.438 12.4258 743.175 12.8828L739.018 19H737.523V10H738.842V17.0928C738.912 16.9229 739.064 16.6328 739.299 16.2227L743.57 10H745.064V19ZM763.135 19H761.693V15.2734H760.489C759.909 15.2734 759.382 15.7422 758.907 16.6797L757.738 19L756.068 19L757.58 16.2227C757.932 15.5781 758.356 15.1533 758.854 14.9482C758.151 14.8545 757.615 14.5967 757.246 14.1748C756.877 13.7529 756.692 13.2256 756.692 12.5928C756.692 11.7959 756.979 11.166 757.554 10.7031C758.134 10.2344 758.945 10 759.988 10L763.135 10V19ZM761.693 14.0693V11.2305H759.988C758.775 11.2305 758.169 11.6904 758.169 12.6104C758.169 13.583 758.758 14.0693 759.936 14.0693H761.693Z" fill="#2F2F2F" fill-opacity="0.25"/>
<path d="M137.964 19H136.522V14.9131H131.935V19H130.493V10H131.935V13.6914H136.522V10H137.964V19ZM157.115 14.8604H150.761C150.784 15.8623 151.054 16.6357 151.569 17.1807C152.085 17.7256 152.794 17.998 153.696 17.998C154.71 17.998 155.642 17.6641 156.491 16.9961V18.3496C155.7 18.9238 154.654 19.2109 153.354 19.2109C152.082 19.2109 151.083 18.8037 150.356 17.9893C149.63 17.1689 149.267 16.0176 149.267 14.5352C149.267 13.1348 149.662 11.9951 150.453 11.1162C151.25 10.2314 152.237 9.78906 153.415 9.78906C154.593 9.78906 155.504 10.1699 156.148 10.9316C156.793 11.6934 157.115 12.751 157.115 14.1045V14.8604ZM155.639 13.6387C155.633 12.8066 155.431 12.1592 155.032 11.6963C154.64 11.2334 154.092 11.002 153.389 11.002C152.709 11.002 152.132 11.2451 151.657 11.7314C151.183 12.2178 150.89 12.8535 150.778 13.6387H155.639ZM168.304 19V10H172.224C173.108 10 173.806 10.1963 174.315 10.5889C174.831 10.9814 175.089 11.5176 175.089 12.1973C175.089 13.3633 174.515 14.0723 173.366 14.3242C174.743 14.5 175.432 15.1943 175.432 16.4072C175.432 17.1396 175.147 17.7549 174.579 18.2529C174.017 18.751 173.316 19 172.479 19H168.304ZM169.745 11.2305V13.7617H171.907C173.067 13.7617 173.647 13.3105 173.647 12.4082C173.647 11.623 173.126 11.2305 172.083 11.2305H169.745ZM169.745 14.9922V17.7695H172.241C173.407 17.7695 173.99 17.2979 173.99 16.3545C173.99 15.4463 173.337 14.9922 172.03 14.9922H169.745ZM194.082 14.8604H187.728C187.751 15.8623 188.021 16.6357 188.536 17.1807C189.052 17.7256 189.761 17.998 190.663 17.998C191.677 17.998 192.608 17.6641 193.458 16.9961V18.3496C192.667 18.9238 191.621 19.2109 190.32 19.2109C189.049 19.2109 188.05 18.8037 187.323 17.9893C186.597 17.1689 186.233 16.0176 186.233 14.5352C186.233 13.1348 186.629 11.9951 187.42 11.1162C188.217 10.2314 189.204 9.78906 190.382 9.78906C191.56 9.78906 192.471 10.1699 193.115 10.9316C193.76 11.6934 194.082 12.751 194.082 14.1045V14.8604ZM192.605 13.6387C192.6 12.8066 192.397 12.1592 191.999 11.6963C191.606 11.2334 191.059 11.002 190.355 11.002C189.676 11.002 189.099 11.2451 188.624 11.7314C188.149 12.2178 187.856 12.8535 187.745 13.6387H192.605ZM206.747 17.6992H206.712V23.1396H205.271V10H206.712V11.582H206.747C207.456 10.3867 208.493 9.78906 209.858 9.78906C211.019 9.78906 211.924 10.1934 212.574 11.002C213.225 11.8047 213.55 12.8828 213.55 14.2363C213.55 15.7422 213.184 16.9492 212.451 17.8574C211.719 18.7598 210.717 19.2109 209.445 19.2109C208.279 19.2109 207.38 18.707 206.747 17.6992ZM206.712 14.0693V15.3262C206.712 16.0703 206.952 16.7031 207.433 17.2246C207.919 17.7402 208.534 17.998 209.278 17.998C210.151 17.998 210.834 17.6641 211.326 16.9961C211.824 16.3281 212.073 15.3994 212.073 14.21C212.073 13.208 211.842 12.4229 211.379 11.8545C210.916 11.2861 210.289 11.002 209.498 11.002C208.66 11.002 207.986 11.2949 207.477 11.8809C206.967 12.4609 206.712 13.1904 206.712 14.0693ZM228.614 19.2109C227.284 19.2109 226.221 18.792 225.424 17.9541C224.633 17.1104 224.237 15.9941 224.237 14.6055C224.237 13.0937 224.65 11.9131 225.477 11.0635C226.303 10.2139 227.419 9.78906 228.825 9.78906C230.167 9.78906 231.213 10.2021 231.963 11.0283C232.719 11.8545 233.097 13 233.097 14.4648C233.097 15.9004 232.689 17.0518 231.875 17.9189C231.066 18.7803 229.979 19.2109 228.614 19.2109ZM228.72 11.002C227.794 11.002 227.062 11.3184 226.522 11.9512C225.983 12.5781 225.714 13.4453 225.714 14.5527C225.714 15.6191 225.986 16.46 226.531 17.0752C227.076 17.6904 227.806 17.998 228.72 17.998C229.651 17.998 230.366 17.6963 230.864 17.0928C231.368 16.4893 231.62 15.6309 231.62 14.5176C231.62 13.3926 231.368 12.5254 230.864 11.916C230.366 11.3066 229.651 11.002 228.72 11.002ZM250.552 19H249.11V15.2734H247.906C247.326 15.2734 246.799 15.7422 246.324 16.6797L245.155 19H243.485L244.997 16.2227C245.349 15.5781 245.773 15.1533 246.271 14.9482C245.568 14.8545 245.032 14.5967 244.663 14.1748C244.294 13.7529 244.109 13.2256 244.109 12.5928C244.109 11.7959 244.396 11.166 244.971 10.7031C245.551 10.2344 246.362 10 247.405 10H250.552V19ZM249.11 14.0693V11.2305H247.405C246.192 11.2305 245.586 11.6904 245.586 12.6104C245.586 13.583 246.175 14.0693 247.353 14.0693H249.11ZM268.104 11.2305H265.405V19H263.964V11.2305H261.257V10H268.104V11.2305ZM286.306 19H284.864V14.9131H280.276V19H278.835V10H280.276V13.6914H284.864V10H286.306V19ZM308.067 19H306.644V10H308.067V19ZM298.224 19V10H299.665V13.4541H302.091C303.011 13.4541 303.74 13.6943 304.279 14.1748C304.824 14.6553 305.097 15.3262 305.097 16.1875C305.097 17.0547 304.824 17.7402 304.279 18.2441C303.734 18.748 303.046 19 302.214 19H298.224ZM299.665 14.6934V17.7695H301.827C303.022 17.7695 303.62 17.2422 303.62 16.1875C303.62 15.1914 303.017 14.6934 301.81 14.6934H299.665ZM327.236 14.8604H320.882C320.905 15.8623 321.175 16.6357 321.69 17.1807C322.206 17.7256 322.915 17.998 323.817 17.998C324.831 17.998 325.763 17.6641 326.612 16.9961V18.3496C325.821 18.9238 324.775 19.2109 323.475 19.2109C322.203 19.2109 321.204 18.8037 320.478 17.9893C319.751 17.1689 319.388 16.0176 319.388 14.5352C319.388 13.1348 319.783 11.9951 320.574 11.1162C321.371 10.2314 322.358 9.78906 323.536 9.78906C324.714 9.78906 325.625 10.1699 326.27 10.9316C326.914 11.6934 327.236 12.751 327.236 14.1045V14.8604ZM325.76 13.6387C325.754 12.8066 325.552 12.1592 325.153 11.6963C324.761 11.2334 324.213 11.002 323.51 11.002C322.83 11.002 322.253 11.2451 321.778 11.7314C321.304 12.2178 321.011 12.8535 320.899 13.6387H325.76Z" fill="#2F2F2F" fill-opacity="0.25"/>
<path d="M536.887 14L534 11.1132L531.113 14L534 16.8868L536.887 14ZM360.113 14L363 16.8868L365.887 14L363 11.1132L360.113 14ZM534 13.5L363 13.5V14.5L534 14.5V13.5Z" fill="#446F9D" fill-opacity="0.29"/>
<path d="M595.113 559L598 561.887L600.887 559L598 556.113L595.113 559ZM796.613 14L799.5 16.8868L802.387 14L799.5 11.1132L796.613 14ZM896 14H896.5V13.5H896V14ZM896 559V559.5H896.5V559H896ZM896 13.5H799.5V14.5H896V13.5ZM598 559.5H896V558.5H598V559.5ZM896.5 559L896.5 14H895.5L895.5 559H896.5Z" fill="#446F9D" fill-opacity="0.29"/>
<path d="M302.887 559L300 561.887L297.113 559L300 556.113L302.887 559ZM95.8867 14L93 16.8868L90.1133 14L93 11.1132L95.8867 14ZM1 14H0.5L0.5 13.5H1V14ZM1 559L1 559.5H0.5L0.5 559H1ZM1 13.5H93V14.5H1L1 13.5ZM300 559.5H1L1 558.5H300V559.5ZM0.5 559L0.5 14H1.5L1.5 559H0.5Z" fill="#446F9D" fill-opacity="0.29"/>
</svg>
