<svg width="573" height="394" viewBox="0 0 573 394" fill="none" xmlns="http://www.w3.org/2000/svg">
<path d="M568 137.887L570.887 135L568 132.113L565.113 135L568 137.887ZM568 24.1132L565.113 27L568 29.8867L570.887 27L568 24.1132ZM568.5 135L568.5 27L567.5 27L567.5 135L568.5 135Z" fill="#446F9D" fill-opacity="0.29"/>
<path d="M0.113249 3L3 5.88675L5.88675 3L3 0.113249L0.113249 3ZM533.887 3.00005L531 0.113295L528.113 3.00005L531 5.8868L533.887 3.00005ZM3 3.5L531 3.50005L531 2.50005L3 2.5L3 3.5Z" fill="#446F9D" fill-opacity="0.29"/>
<path d="M572 178.678L561.559 174.538C559.695 173.8 558.764 172.763 558.764 171.427C558.764 171.052 558.802 170.738 558.878 170.486L560.17 170.486C560.064 170.797 560.012 171.081 560.012 171.339C560.012 172.065 560.445 172.61 561.312 172.974L563.018 173.694L572 170.179L572 171.778L565.074 174.213C564.986 174.242 564.758 174.304 564.389 174.397L564.389 174.45C564.529 174.479 564.752 174.538 565.057 174.626L572 177.183L572 178.678ZM563.413 212.828C562.997 212.137 562.789 211.316 562.789 210.367C562.789 209.084 563.205 208.047 564.037 207.256C564.875 206.471 565.959 206.078 567.289 206.078C568.771 206.078 569.961 206.503 570.857 207.352C571.76 208.202 572.211 209.336 572.211 210.754C572.211 211.545 572.064 212.242 571.771 212.846L570.295 212.846C570.764 212.178 570.998 211.463 570.998 210.701C570.998 209.781 570.667 209.025 570.005 208.434C569.349 207.848 568.484 207.555 567.412 207.555C566.357 207.555 565.525 207.83 564.916 208.381C564.307 208.937 564.002 209.682 564.002 210.613C564.002 211.398 564.263 212.137 564.784 212.828L563.413 212.828ZM563 248.033L563 246.601L570.778 246.601L570.778 244.509C567.866 244.269 565.821 243.855 564.644 243.269C563.466 242.689 562.877 241.907 562.877 240.923C562.877 240.624 562.918 240.366 563 240.149L564.239 240.149C564.134 240.354 564.081 240.577 564.081 240.817C564.081 242.106 566.721 242.936 572 243.305L572 248.033L563 248.033ZM562.789 281.182C562.789 279.852 563.208 278.788 564.046 277.991C564.89 277.2 566.006 276.805 567.395 276.805C568.906 276.805 570.087 277.218 570.937 278.044C571.786 278.87 572.211 279.986 572.211 281.393C572.211 282.734 571.798 283.78 570.972 284.53C570.146 285.286 569 285.664 567.535 285.664C566.1 285.664 564.948 285.257 564.081 284.442C563.22 283.634 562.789 282.547 562.789 281.182ZM570.998 281.287C570.998 280.361 570.682 279.629 570.049 279.09C569.422 278.551 568.555 278.281 567.447 278.281C566.381 278.281 565.54 278.554 564.925 279.099C564.31 279.644 564.002 280.373 564.002 281.287C564.002 282.219 564.304 282.934 564.907 283.432C565.511 283.936 566.369 284.187 567.482 284.187C568.607 284.187 569.475 283.936 570.084 283.432C570.693 282.934 570.998 282.219 570.998 281.287ZM563 314.427L572 314.427L572 318.347C572 319.231 571.804 319.929 571.411 320.439C571.019 320.954 570.482 321.212 569.803 321.212C568.637 321.212 567.928 320.638 567.676 319.489C567.5 320.866 566.806 321.555 565.593 321.555C564.86 321.555 564.245 321.271 563.747 320.702C563.249 320.14 563 319.439 563 318.602L563 314.427ZM570.77 315.868L568.238 315.868L568.238 318.03C568.238 319.19 568.689 319.771 569.592 319.771C570.377 319.771 570.77 319.249 570.77 318.206L570.77 315.868ZM567.008 315.868L564.23 315.868L564.23 318.364C564.23 319.53 564.702 320.113 565.646 320.113C566.554 320.113 567.008 319.46 567.008 318.153L567.008 315.868ZM563 357.973L563 356.672L570.181 356.672C569.929 356.543 569.574 356.347 569.117 356.083L563 351.926L563 350.432L572 350.432L572 351.75L564.907 351.75C565.077 351.82 565.367 351.973 565.777 352.207L572 356.479L572 357.973L563 357.973ZM563 393.503L563 392.062L566.727 392.062L566.727 390.858C566.727 390.277 566.258 389.75 565.32 389.276L563 388.107L563 386.437L565.777 387.948C566.422 388.3 566.847 388.725 567.052 389.223C567.145 388.52 567.403 387.984 567.825 387.614C568.247 387.245 568.774 387.061 569.407 387.061C570.204 387.061 570.834 387.348 571.297 387.922C571.766 388.502 572 389.314 572 390.357L572 393.503L563 393.503ZM567.931 392.062L570.77 392.062L570.77 390.357C570.77 389.144 570.31 388.537 569.39 388.537C568.417 388.537 567.931 389.126 567.931 390.304L567.931 392.062Z" fill="#2F2F2F" fill-opacity="0.25"/>
</svg>
