<svg width="886" height="302" viewBox="0 0 886 302" fill="none" xmlns="http://www.w3.org/2000/svg">
<path d="M762.113 3L765 5.88675L767.887 3L765 0.113249L762.113 3ZM792.894 299L795.781 301.887L798.667 299L795.781 296.113L792.894 299ZM885 3L885.5 3L885.5 2.5L885 2.5L885 3ZM885 299L885 299.5L885.5 299.5L885.5 299L885 299ZM765 3.5L885 3.5L885 2.5L765 2.5L765 3.5ZM884.5 3L884.5 299L885.5 299L885.5 3L884.5 3ZM885 298.5L795.781 298.5L795.781 299.5L885 299.5L885 298.5Z" fill="#446F9D" fill-opacity="0.29"/>
<path d="M124.887 3L122 5.88675L119.113 3L122 0.113249L124.887 3ZM93.8496 299L90.9628 301.887L88.0761 299L90.9628 296.113L93.8496 299ZM1.00002 3L0.500023 3L0.500023 2.5L1.00002 2.5L1.00002 3ZM1.00002 299L1.00002 299.5L0.50002 299.5L0.50002 299L1.00002 299ZM122 3.5L1.00002 3.5L1.00002 2.5L122 2.5L122 3.5ZM1.50002 3L1.50002 299L0.50002 299L0.500023 3L1.50002 3ZM1.00002 298.5L90.9628 298.5L90.9628 299.5L1.00002 299.5L1.00002 298.5Z" fill="#446F9D" fill-opacity="0.29"/>
</svg>
