<svg width="634" height="15" viewBox="0 0 634 15" fill="none" xmlns="http://www.w3.org/2000/svg">
<path d="M440.883 10V1L444.803 1C445.688 1 446.385 1.19629 446.895 1.58887C447.41 1.98145 447.668 2.51758 447.668 3.19727C447.668 4.36328 447.094 5.07227 445.945 5.32422C447.322 5.5 448.011 6.19434 448.011 7.40723C448.011 8.13965 447.727 8.75488 447.158 9.25293C446.596 9.75098 445.896 10 445.058 10H440.883ZM442.324 2.23047V4.76172H444.486C445.646 4.76172 446.227 4.31055 446.227 3.4082C446.227 2.62305 445.705 2.23047 444.662 2.23047L442.324 2.23047ZM442.324 5.99219V8.76953H444.82C445.986 8.76953 446.569 8.29785 446.569 7.35449C446.569 6.44629 445.916 5.99219 444.609 5.99219L442.324 5.99219ZM466.898 10H465.457V2.23047H460.869V10H459.428V1L466.898 1V10ZM486.05 5.86035H479.695C479.719 6.8623 479.988 7.63574 480.504 8.18066C481.02 8.72559 481.729 8.99805 482.631 8.99805C483.645 8.99805 484.576 8.66406 485.426 7.99609V9.34961C484.635 9.92383 483.589 10.2109 482.288 10.2109C481.017 10.2109 480.018 9.80371 479.291 8.98926C478.564 8.16895 478.201 7.01758 478.201 5.53516C478.201 4.13477 478.597 2.99512 479.388 2.11621C480.185 1.23145 481.172 0.789062 482.35 0.789062C483.527 0.789062 484.438 1.16992 485.083 1.93164C485.728 2.69336 486.05 3.75098 486.05 5.10449V5.86035ZM484.573 4.63867C484.567 3.80664 484.365 3.15918 483.967 2.69629C483.574 2.2334 483.026 2.00195 482.323 2.00195C481.644 2.00195 481.066 2.24512 480.592 2.73145C480.117 3.21777 479.824 3.85352 479.713 4.63867H484.573ZM504.489 10H503.057V6.37891C502.002 6.95312 501.029 7.24023 500.139 7.24023C498.123 7.24023 497.115 6.17383 497.115 4.04102V1H498.557V3.9707C498.557 5.28906 499.125 5.94824 500.262 5.94824C501.129 5.94824 502.061 5.69629 503.057 5.19238V1H504.489V10ZM523.649 5.86035L517.295 5.86035C517.318 6.8623 517.588 7.63574 518.104 8.18066C518.619 8.72559 519.328 8.99805 520.23 8.99805C521.244 8.99805 522.176 8.66406 523.025 7.99609V9.34961C522.234 9.92383 521.188 10.2109 519.888 10.2109C518.616 10.2109 517.617 9.80371 516.891 8.98926C516.164 8.16895 515.801 7.01758 515.801 5.53516C515.801 4.13477 516.196 2.99512 516.987 2.11621C517.784 1.23145 518.771 0.789062 519.949 0.789062C521.127 0.789062 522.038 1.16992 522.683 1.93164C523.327 2.69336 523.649 3.75098 523.649 5.10449V5.86035ZM522.173 4.63867C522.167 3.80664 521.965 3.15918 521.566 2.69629C521.174 2.2334 520.626 2.00195 519.923 2.00195C519.243 2.00195 518.666 2.24512 518.191 2.73145C517.717 3.21777 517.424 3.85352 517.312 4.63867L522.173 4.63867ZM540.489 2.23047H537.791V10H536.35V2.23047H533.643V1H540.489V2.23047ZM557.786 10H556.354V2.22168L554.262 2.22168C554.021 5.13379 553.608 7.17871 553.022 8.35645C552.442 9.53418 551.66 10.123 550.676 10.123C550.377 10.123 550.119 10.082 549.902 10V8.76074C550.107 8.86621 550.33 8.91895 550.57 8.91895C551.859 8.91895 552.688 6.2793 553.058 1L557.786 1V10ZM576.946 5.86035H570.592C570.615 6.8623 570.885 7.63574 571.4 8.18066C571.916 8.72559 572.625 8.99805 573.527 8.99805C574.541 8.99805 575.473 8.66406 576.322 7.99609V9.34961C575.531 9.92383 574.485 10.2109 573.185 10.2109C571.913 10.2109 570.914 9.80371 570.188 8.98926C569.461 8.16895 569.098 7.01758 569.098 5.53516C569.098 4.13477 569.493 2.99512 570.284 2.11621C571.081 1.23145 572.068 0.789062 573.246 0.789062C574.424 0.789062 575.335 1.16992 575.979 1.93164C576.624 2.69336 576.946 3.75098 576.946 5.10449V5.86035ZM575.47 4.63867C575.464 3.80664 575.262 3.15918 574.863 2.69629C574.471 2.2334 573.923 2.00195 573.22 2.00195C572.54 2.00195 571.963 2.24512 571.488 2.73145C571.014 3.21777 570.721 3.85352 570.609 4.63867H575.47ZM595.605 10H594.164V5.91309H589.576V10H588.135V1H589.576V4.69141H594.164V1H595.605V10ZM615.064 10H613.764V2.81934C613.635 3.07129 613.438 3.42578 613.175 3.88281L609.018 10H607.523V1H608.842V8.09277C608.912 7.92285 609.064 7.63281 609.299 7.22266L613.57 1H615.064V10ZM633.135 10H631.693V6.27344H630.489C629.909 6.27344 629.382 6.74219 628.907 7.67969L627.738 10L626.068 10L627.58 7.22266C627.932 6.57812 628.356 6.15332 628.854 5.94824C628.151 5.85449 627.615 5.59668 627.246 5.1748C626.877 4.75293 626.692 4.22559 626.692 3.59277C626.692 2.7959 626.979 2.16602 627.554 1.70312C628.134 1.23437 628.945 1 629.988 1L633.135 1V10ZM631.693 5.06934V2.23047H629.988C628.775 2.23047 628.169 2.69043 628.169 3.61035C628.169 4.58301 628.758 5.06934 629.936 5.06934H631.693Z" fill="#2F2F2F" fill-opacity="0.25"/>
<path d="M7.96387 10H6.52246V5.91309H1.93457L1.93457 10H0.493164L0.493164 1H1.93457L1.93457 4.69141H6.52246V1H7.96387L7.96387 10ZM27.1152 5.86035H20.7607C20.7842 6.8623 21.0537 7.63574 21.5693 8.18066C22.085 8.72559 22.7939 8.99805 23.6963 8.99805C24.71 8.99805 25.6416 8.66406 26.4912 7.99609V9.34961C25.7002 9.92383 24.6543 10.2109 23.3535 10.2109C22.082 10.2109 21.083 9.80371 20.3564 8.98926C19.6299 8.16895 19.2666 7.01758 19.2666 5.53516C19.2666 4.13477 19.6621 2.99512 20.4531 2.11621C21.25 1.23145 22.2373 0.789062 23.415 0.789062C24.5928 0.789062 25.5039 1.16992 26.1484 1.93164C26.793 2.69336 27.1152 3.75098 27.1152 5.10449V5.86035ZM25.6387 4.63867C25.6328 3.80664 25.4307 3.15918 25.0322 2.69629C24.6396 2.2334 24.0918 2.00195 23.3887 2.00195C22.709 2.00195 22.1318 2.24512 21.6572 2.73145C21.1826 3.21777 20.8896 3.85352 20.7783 4.63867H25.6387ZM38.3037 10V1H42.2236C43.1084 1 43.8057 1.19629 44.3154 1.58887C44.8311 1.98145 45.0889 2.51758 45.0889 3.19727C45.0889 4.36328 44.5146 5.07227 43.3662 5.32422C44.7432 5.5 45.4316 6.19434 45.4316 7.40723C45.4316 8.13965 45.1475 8.75488 44.5791 9.25293C44.0166 9.75098 43.3164 10 42.4785 10H38.3037ZM39.7451 2.23047V4.76172H41.9072C43.0674 4.76172 43.6475 4.31055 43.6475 3.4082C43.6475 2.62305 43.126 2.23047 42.083 2.23047H39.7451ZM39.7451 5.99219V8.76953H42.2412C43.4072 8.76953 43.9902 8.29785 43.9902 7.35449C43.9902 6.44629 43.3369 5.99219 42.0303 5.99219H39.7451ZM64.082 5.86035H57.7275C57.751 6.8623 58.0205 7.63574 58.5361 8.18066C59.0518 8.72559 59.7607 8.99805 60.6631 8.99805C61.6768 8.99805 62.6084 8.66406 63.458 7.99609V9.34961C62.667 9.92383 61.6211 10.2109 60.3203 10.2109C59.0488 10.2109 58.0498 9.80371 57.3232 8.98926C56.5967 8.16895 56.2334 7.01758 56.2334 5.53516C56.2334 4.13477 56.6289 2.99512 57.4199 2.11621C58.2168 1.23145 59.2041 0.789062 60.3818 0.789062C61.5596 0.789062 62.4707 1.16992 63.1152 1.93164C63.7598 2.69336 64.082 3.75098 64.082 5.10449V5.86035ZM62.6055 4.63867C62.5996 3.80664 62.3975 3.15918 61.999 2.69629C61.6064 2.2334 61.0586 2.00195 60.3555 2.00195C59.6758 2.00195 59.0986 2.24512 58.624 2.73145C58.1494 3.21777 57.8564 3.85352 57.7451 4.63867H62.6055ZM76.7471 8.69922H76.7119V14.1396H75.2705V1H76.7119V2.58203H76.7471C77.4561 1.38672 78.4932 0.789062 79.8584 0.789062C81.0186 0.789062 81.9238 1.19336 82.5742 2.00195C83.2246 2.80469 83.5498 3.88281 83.5498 5.23633C83.5498 6.74219 83.1836 7.94922 82.4512 8.85742C81.7188 9.75977 80.7168 10.2109 79.4453 10.2109C78.2793 10.2109 77.3799 9.70703 76.7471 8.69922ZM76.7119 5.06934V6.32617C76.7119 7.07031 76.9521 7.70312 77.4326 8.22461C77.9189 8.74023 78.5342 8.99805 79.2783 8.99805C80.1514 8.99805 80.834 8.66406 81.3262 7.99609C81.8242 7.32812 82.0732 6.39941 82.0732 5.20996C82.0732 4.20801 81.8418 3.42285 81.3789 2.85449C80.916 2.28613 80.2891 2.00195 79.498 2.00195C78.6602 2.00195 77.9863 2.29492 77.4766 2.88086C76.9668 3.46094 76.7119 4.19043 76.7119 5.06934ZM98.6143 10.2109C97.2842 10.2109 96.2207 9.79199 95.4238 8.9541C94.6328 8.11035 94.2373 6.99414 94.2373 5.60547C94.2373 4.09375 94.6504 2.91309 95.4766 2.06348C96.3027 1.21387 97.4189 0.789062 98.8252 0.789062C100.167 0.789062 101.213 1.20215 101.963 2.02832C102.719 2.85449 103.097 4 103.097 5.46484C103.097 6.90039 102.689 8.05176 101.875 8.91895C101.066 9.78027 99.9795 10.2109 98.6143 10.2109ZM98.7197 2.00195C97.7939 2.00195 97.0615 2.31836 96.5225 2.95117C95.9834 3.57812 95.7139 4.44531 95.7139 5.55273C95.7139 6.61914 95.9863 7.45996 96.5312 8.0752C97.0762 8.69043 97.8057 8.99805 98.7197 8.99805C99.6514 8.99805 100.366 8.69629 100.864 8.09277C101.368 7.48926 101.62 6.63086 101.62 5.51758C101.62 4.39258 101.368 3.52539 100.864 2.91602C100.366 2.30664 99.6514 2.00195 98.7197 2.00195ZM120.552 10H119.11V6.27344H117.906C117.326 6.27344 116.799 6.74219 116.324 7.67969L115.155 10H113.485L114.997 7.22266C115.349 6.57812 115.773 6.15332 116.271 5.94824C115.568 5.85449 115.032 5.59668 114.663 5.1748C114.294 4.75293 114.109 4.22559 114.109 3.59277C114.109 2.7959 114.396 2.16602 114.971 1.70312C115.551 1.23437 116.362 1 117.405 1H120.552V10ZM119.11 5.06934V2.23047H117.405C116.192 2.23047 115.586 2.69043 115.586 3.61035C115.586 4.58301 116.175 5.06934 117.353 5.06934H119.11ZM138.104 2.23047H135.405V10H133.964V2.23047H131.257V1H138.104V2.23047ZM156.306 10H154.864V5.91309H150.276V10H148.835V1H150.276V4.69141H154.864V1H156.306V10ZM178.067 10H176.644V1H178.067V10ZM168.224 10V1H169.665V4.4541H172.091C173.011 4.4541 173.74 4.69434 174.279 5.1748C174.824 5.65527 175.097 6.32617 175.097 7.1875C175.097 8.05469 174.824 8.74023 174.279 9.24414C173.734 9.74805 173.046 10 172.214 10H168.224ZM169.665 5.69336V8.76953H171.827C173.022 8.76953 173.62 8.24219 173.62 7.1875C173.62 6.19141 173.017 5.69336 171.81 5.69336H169.665ZM197.236 5.86035H190.882C190.905 6.8623 191.175 7.63574 191.69 8.18066C192.206 8.72559 192.915 8.99805 193.817 8.99805C194.831 8.99805 195.763 8.66406 196.612 7.99609V9.34961C195.821 9.92383 194.775 10.2109 193.475 10.2109C192.203 10.2109 191.204 9.80371 190.478 8.98926C189.751 8.16895 189.388 7.01758 189.388 5.53516C189.388 4.13477 189.783 2.99512 190.574 2.11621C191.371 1.23145 192.358 0.789062 193.536 0.789062C194.714 0.789062 195.625 1.16992 196.27 1.93164C196.914 2.69336 197.236 3.75098 197.236 5.10449V5.86035ZM195.76 4.63867C195.754 3.80664 195.552 3.15918 195.153 2.69629C194.761 2.2334 194.213 2.00195 193.51 2.00195C192.83 2.00195 192.253 2.24512 191.778 2.73145C191.304 3.21777 191.011 3.85352 190.899 4.63867H195.76Z" fill="#2F2F2F" fill-opacity="0.25"/>
<path d="M406.887 5L404 2.11325L401.113 5L404 7.88675L406.887 5ZM230.113 5L233 7.88675L235.887 5L233 2.11325L230.113 5ZM404 4.5L233 4.5V5.5L404 5.5V4.5Z" fill="#446F9D" fill-opacity="0.29"/>
</svg>
