<svg width="295" height="448" viewBox="0 0 295 448" fill="none" xmlns="http://www.w3.org/2000/svg">
<path d="M176.853 2.99999L173.966 5.88674L171.08 2.99999L173.966 0.113236L176.853 2.99999ZM294.887 445L292 447.887L289.113 445L292 442.113L294.887 445ZM1.00003 2.99998L0.500031 2.99998L0.500031 2.49998L1.00003 2.49998L1.00003 2.99998ZM1.00006 445L1.00006 445.5L0.50006 445.5L0.50006 445L1.00006 445ZM173.966 3.49999L1.00003 3.49998L1.00003 2.49998L173.966 2.49999L173.966 3.49999ZM1.50003 2.99998L1.50006 445L0.50006 445L0.500031 2.99998L1.50003 2.99998ZM1.00006 444.5L292 444.5L292 445.5L1.00006 445.5L1.00006 444.5Z" fill="white" fill-opacity="0.29"/>
</svg>
