<svg width="293" height="448" viewBox="0 0 293 448" fill="none" xmlns="http://www.w3.org/2000/svg">
<path d="M114.113 2.99999L116.999 5.88674L119.886 2.99999L116.999 0.113237L114.113 2.99999ZM0.113127 445L2.99988 447.887L5.88663 445L2.99988 442.113L0.113127 445ZM291.999 2.99999L292.499 2.99999L292.499 2.49999L291.999 2.49999L291.999 2.99999ZM291.999 445L291.999 445.5L292.499 445.5L292.499 445L291.999 445ZM116.999 3.49999L291.999 3.49999L291.999 2.49999L116.999 2.49999L116.999 3.49999ZM291.499 2.99999L291.499 445L292.499 445L292.499 2.99999L291.499 2.99999ZM291.999 444.5L2.99988 444.5L2.99988 445.5L291.999 445.5L291.999 444.5Z" fill="white" fill-opacity="0.29"/>
</svg>
