<svg width="11" height="763" viewBox="0 0 11 763" fill="none" xmlns="http://www.w3.org/2000/svg">
<path d="M10.2109 758.459C10.2109 759.789 9.79199 760.852 8.9541 761.649C8.11035 762.44 6.99414 762.836 5.60547 762.836C4.09375 762.836 2.91309 762.422 2.06348 761.596C1.21387 760.77 0.789063 759.654 0.789063 758.248C0.789063 756.906 1.20215 755.86 2.02832 755.11C2.85449 754.354 4 753.976 5.46484 753.976C6.90039 753.976 8.05176 754.383 8.91895 755.198C9.78027 756.006 10.2109 757.093 10.2109 758.459ZM2.00195 758.353C2.00195 759.279 2.31836 760.011 2.95117 760.55C3.57813 761.089 4.44531 761.359 5.55273 761.359C6.61914 761.359 7.45996 761.087 8.0752 760.542C8.69043 759.997 8.99805 759.267 8.99805 758.353C8.99805 757.421 8.69629 756.707 8.09277 756.209C7.48926 755.705 6.63086 755.453 5.51758 755.453C4.39258 755.453 3.52539 755.705 2.91602 756.209C2.30664 756.707 2.00195 757.421 2.00195 758.353ZM2.23047 719.562L2.23047 722.26L10 722.26L10 723.702L2.23047 723.702L2.23047 726.409L1 726.409L1 719.562L2.23047 719.562ZM10 691.371L1.00001 691.371L1.00001 687.451C1.00001 686.566 1.1963 685.869 1.58887 685.359C1.98145 684.843 2.51759 684.585 3.19727 684.585C4.36329 684.585 5.07227 685.16 5.32423 686.308C5.50001 684.931 6.19434 684.243 7.40723 684.243C8.13966 684.243 8.75489 684.527 9.25294 685.095C9.75098 685.658 10 686.358 10 687.196L10 691.371ZM2.23048 689.929L4.76173 689.929L4.76173 687.767C4.76173 686.607 4.31055 686.027 3.40821 686.027C2.62305 686.027 2.23048 686.548 2.23048 687.591L2.23048 689.929ZM5.99219 689.929L8.76954 689.929L8.76954 687.433C8.76954 686.267 8.29786 685.684 7.3545 685.684C6.4463 685.684 5.99219 686.337 5.99219 687.644L5.99219 689.929ZM5.86036 648.132L5.86036 654.487C6.86231 654.463 7.63575 654.194 8.18067 653.678C8.7256 653.163 8.99806 652.454 8.99806 651.551C8.99806 650.538 8.66407 649.606 7.9961 648.756L9.34962 648.756C9.92384 649.547 10.2109 650.593 10.2109 651.894C10.2109 653.166 9.80372 654.165 8.98927 654.891C8.16896 655.618 7.01759 655.981 5.53517 655.981C4.13478 655.981 2.99513 655.585 2.11622 654.794C1.23146 653.998 0.789073 653.01 0.789073 651.832C0.789073 650.655 1.16993 649.744 1.93165 649.099C2.69337 648.455 3.75099 648.132 5.1045 648.132L5.86036 648.132ZM4.63868 649.609C3.80665 649.615 3.15919 649.817 2.6963 650.215C2.23341 650.608 2.00196 651.156 2.00196 651.859C2.00196 652.539 2.24513 653.116 2.73146 653.59C3.21778 654.065 3.85353 654.358 4.63868 654.469L4.63868 649.609ZM2.23048 613.832L2.23048 616.531L10 616.531L10 617.972L2.23048 617.972L2.23048 620.679L1.00001 620.679L1.00001 613.832L2.23048 613.832ZM10 575.797L10 577.221L1.00002 577.221L1.00002 575.797L10 575.797ZM10 585.641L1.00002 585.641L1.00002 584.2L4.45412 584.2L4.45412 581.774C4.45412 580.854 4.69435 580.124 5.17482 579.585C5.65529 579.04 6.32619 578.768 7.18752 578.768C8.0547 578.768 8.74025 579.04 9.24416 579.585C9.74806 580.13 10 580.819 10 581.651L10 585.641ZM5.69338 584.2L8.76955 584.2L8.76955 582.038C8.76955 580.842 8.2422 580.245 7.18752 580.245C6.19142 580.245 5.69338 580.848 5.69338 582.055L5.69338 584.2Z" fill="#2F2F2F" fill-opacity="0.25"/>
<path d="M5 0.113249L2.11325 3L5 5.88675L7.88675 3L5 0.113249ZM4.99998 541.887L7.88673 539L4.99998 536.113L2.11323 539L4.99998 541.887ZM4.5 3L4.49998 539L5.49998 539L5.5 3L4.5 3Z" fill="#446F9D" fill-opacity="0.29"/>
</svg>
