<svg width="144" height="60" viewBox="0 0 144 60" fill="none" xmlns="http://www.w3.org/2000/svg">
<path d="M1 38.6077L143 38.6077" stroke="white" stroke-opacity="0.5" stroke-width="0.614719" stroke-miterlimit="10" stroke-linecap="round"/>
<path d="M21.08 29.32C21.08 29.784 20.912 30.184 20.576 30.52C20.256 30.84 19.864 31 19.4 31L12.68 31L12.68 29.32L19.16 29.32L19.16 25.96L14.36 25.96C13.896 25.96 13.496 25.8 13.16 25.48C12.84 25.144 12.68 24.744 12.68 24.28L12.68 20.92C12.68 20.456 12.84 20.064 13.16 19.744C13.496 19.408 13.896 19.24 14.36 19.24L21.08 19.24L21.08 20.92L14.6 20.92L14.6 24.28L19.4 24.28C19.864 24.28 20.256 24.448 20.576 24.784C20.912 25.104 21.08 25.496 21.08 25.96L21.08 29.32ZM34.0456 29.32C34.0456 29.784 33.8776 30.184 33.5416 30.52C33.2216 30.84 32.8296 31 32.3656 31L27.3256 31C26.8616 31 26.4616 30.84 26.1256 30.52C25.8056 30.184 25.6456 29.784 25.6456 29.32L25.6456 24.28C25.6456 23.816 25.8056 23.424 26.1256 23.104C26.4616 22.768 26.8616 22.6 27.3256 22.6L32.3656 22.6C32.8296 22.6 33.2216 22.768 33.5416 23.104C33.8776 23.424 34.0456 23.816 34.0456 24.28L34.0456 29.32ZM32.3656 29.56L32.3656 24.04L27.3256 24.04L27.3256 29.56L32.3656 29.56ZM45.8112 22.6L44.3472 24.04L40.2912 24.04L40.2912 29.56L45.3313 29.56L45.3313 31L40.2912 31C39.8272 31 39.4272 30.84 39.0912 30.52C38.7712 30.184 38.6112 29.784 38.6112 29.32L38.6112 24.28C38.6112 23.816 38.7712 23.424 39.0912 23.104C39.4272 22.768 39.8272 22.6 40.2912 22.6L45.8112 22.6ZM57.3341 31L55.6541 31L55.6541 24.04L50.6141 24.04L50.6141 31L48.9341 31L48.9341 18.76L50.6141 17.08L50.6141 23.8L51.8141 22.6L55.6541 22.6C56.1181 22.6 56.5101 22.768 56.8301 23.104C57.1661 23.424 57.3341 23.816 57.3341 24.28L57.3341 31ZM63.5741 21.16L61.8941 21.16L61.8941 19.24L63.5741 19.24L63.5741 21.16ZM63.5741 31L61.8941 31L61.8941 23.8L63.5741 22.12L63.5741 31Z" fill="white"/>
<path d="M20.09 54.74C20.09 55.088 19.964 55.388 19.712 55.64C19.472 55.88 19.178 56 18.83 56L13.79 56C13.442 56 13.142 55.88 12.89 55.64C12.65 55.388 12.53 55.088 12.53 54.74L12.53 48.44C12.53 48.092 12.65 47.798 12.89 47.558C13.142 47.306 13.442 47.18 13.79 47.18L18.83 47.18C19.178 47.18 19.472 47.306 19.712 47.558C19.964 47.798 20.09 48.092 20.09 48.44L20.09 49.7L18.65 49.7L18.65 48.44L13.97 48.44L13.97 54.74L18.65 54.74L18.65 53.48L20.09 53.48L20.09 54.74ZM35.3977 56L34.1377 56L34.1377 55.082L33.0577 56L30.3577 56C30.0097 56 29.7097 55.88 29.4577 55.64C29.2177 55.388 29.0977 55.088 29.0977 54.74L29.0977 53.48C29.0977 53.132 29.2177 52.838 29.4577 52.598C29.7097 52.346 30.0097 52.22 30.3577 52.22L33.9577 52.22L32.8777 53.282L30.3577 53.282L30.3577 54.92L34.1377 54.92L34.1377 50.78L29.0977 50.78L30.1777 49.7L34.1377 49.7C34.4857 49.7 34.7797 49.826 35.0197 50.078C35.2717 50.318 35.3977 50.612 35.3977 50.96L35.3977 56ZM51.3207 54.74C51.3207 55.088 51.1947 55.388 50.9427 55.64C50.7027 55.88 50.4087 56 50.0607 56L46.2807 56L46.2807 54.938L45.0207 56.18L45.0207 46.82L46.2807 45.56L46.2807 50.6L47.1807 49.7L50.0607 49.7C50.4087 49.7 50.7027 49.826 50.9427 50.078C51.1947 50.318 51.3207 50.612 51.3207 50.96L51.3207 54.74ZM50.0607 54.92L50.0607 50.78L46.2807 50.78L46.2807 54.92L50.0607 54.92ZM65.8107 52.22L64.5507 52.22L64.5507 50.78L62.0307 50.78L62.0307 56L60.7707 56L60.7707 49.7L62.0307 49.7L62.0307 50.6L62.9307 49.7L64.5507 49.7C64.8987 49.7 65.1927 49.826 65.4327 50.078C65.6847 50.318 65.8107 50.612 65.8107 50.96L65.8107 52.22ZM75.9744 48.62L74.7144 48.62L74.7144 47.18L75.9744 47.18L75.9744 48.62ZM75.9744 56L74.7144 56L74.7144 50.6L75.9744 49.34L75.9744 56ZM91.7237 54.74C91.7237 55.088 91.5977 55.388 91.3457 55.64C91.1057 55.88 90.8117 56 90.4637 56L86.6837 56C86.3357 56 86.0357 55.88 85.7837 55.64C85.5437 55.388 85.4237 55.088 85.4237 54.74L85.4237 50.96C85.4237 50.612 85.5437 50.318 85.7837 50.078C86.0357 49.826 86.3357 49.7 86.6837 49.7L90.4637 49.7C90.8117 49.7 91.1057 49.826 91.3457 50.078C91.5977 50.318 91.7237 50.612 91.7237 50.96L91.7237 54.74ZM90.4637 54.92L90.4637 50.78L86.6837 50.78L86.6837 54.92L90.4637 54.92ZM102.618 56L101.358 56L101.358 46.82L102.618 45.56L102.618 56ZM118.556 56L113.516 56C113.168 56 112.868 55.88 112.616 55.64C112.376 55.388 112.256 55.088 112.256 54.74L112.256 50.96C112.256 50.612 112.376 50.318 112.616 50.078C112.868 49.826 113.168 49.7 113.516 49.7L117.296 49.7C117.644 49.7 117.938 49.826 118.178 50.078C118.43 50.318 118.556 50.612 118.556 50.96L118.556 52.22L117.296 53.48L113.696 53.48L114.776 52.4L117.296 52.4L117.296 50.78L113.516 50.78L113.516 54.92L118.556 54.92L118.556 56ZM131.606 56L129.086 56C128.738 56 128.438 55.88 128.186 55.64C127.946 55.388 127.826 55.088 127.826 54.74L127.826 50.78L126.026 50.78L127.106 49.7L127.826 49.7L127.826 48.44L129.086 47.18L129.086 49.7L131.606 49.7L131.606 50.78L129.086 50.78L129.086 54.92L131.606 54.92L131.606 56Z" fill="white" fill-opacity="0.8"/>
<path d="M2.74206 28.8955C3.50089 29.9018 3.52502 30.1055 4.80623 30.8885C5.00896 31.0123 5.37566 30.7461 5.01981 30.3188C4.33315 29.4943 3.81216 29.0956 3.38271 28.1123C2.93092 27.0779 2.88446 25.2651 2.88446 25.2651C2.88446 25.2651 2.96085 23.2977 3.38271 22.1333C3.76439 21.0798 4.08001 20.4954 4.80627 19.6421C5.53254 18.7888 6.18235 18.456 6.94158 18.2187C7.70082 17.9814 9.0058 17.4355 9.0058 17.4355C9.0058 17.4355 10.6904 16.7712 11.4259 16.439C12.1614 16.1069 14.2018 14.6596 14.2018 14.6596C14.2018 14.6596 15.6741 13.8735 16.6219 13.3784C17.4814 12.9293 17.9222 12.5847 18.8284 12.2395C20.1021 11.7544 20.9012 11.7551 22.245 11.5277C25.5431 10.9696 27.4452 11.046 30.7864 10.8871C36.5894 10.6112 39.8537 10.8046 45.6626 10.8871C53.2823 10.9954 57.5459 11.4122 65.1655 11.5277C71.697 11.6267 75.3601 11.6703 81.8924 11.6703H82.8177C83.316 11.6703 83.3871 10.9948 82.8177 10.8871C80.1841 10.3891 72.0616 10.1931 65.1655 9.81944C59.4965 9.51224 56.3189 9.3113 50.6451 9.10766C42.4492 8.81349 37.8437 8.46406 29.6475 8.75177C26.977 8.84551 25.4729 8.83825 22.8144 9.10766C20.8041 9.31138 19.6559 9.35421 17.6896 9.81944C14.7861 10.5064 13.1959 11.1756 10.5717 12.5954C8.25238 13.8503 6.84676 14.5374 5.01981 16.439C3.93367 17.5696 3.17659 18.2881 2.38617 19.6421C1.66473 20.8778 1.33351 21.5749 1.105 22.9874C0.962952 23.8655 0.967063 24.3864 1.105 25.2651C1.33084 26.7039 1.86526 27.7326 2.74206 28.8955Z" fill="white"/>
<path d="M54.0621 7.6131C53.4244 7.84498 52.8253 8.2118 52.3534 8.53845C51.428 9.17902 51.4279 9.39259 52.9233 9.17902C53.2755 9.12871 53.6596 8.97471 54.1332 8.82317C57.692 7.68435 60.1832 6.71587 64.1693 5.54896C67.5409 4.56195 69.8666 4.02954 72.782 3.05769C73.209 2.91536 73.2479 3.20245 73.1379 3.3424C72.3549 4.33893 71.8094 4.61823 70.9314 5.40657C69.2127 6.94976 66.898 9.01294 66.376 9.17902C65.854 9.34511 64.7389 9.69151 64.4542 9.74845C64.1695 9.80539 68.2266 10.0094 70.2908 10.1043C70.2908 10.1043 74.0676 6.42897 76.1274 3.76947C76.7606 2.9519 77.8876 2.64981 77.6933 1.63412C77.5636 0.955952 77.1371 0.65234 76.5545 0.28173C75.1551 -0.608494 74.0305 0.857816 72.4261 1.27823C69.1939 2.12523 67.3951 2.66741 64.2406 3.76947C61.1658 4.84372 59.566 5.63982 56.4821 6.68782C55.5416 7.00743 54.8451 7.32842 54.0621 7.6131Z" fill="white"/>
<path fill-rule="evenodd" clip-rule="evenodd" d="M95.7109 10.8618C96.7556 10.6833 98.0629 10.4599 98.9832 9.9309C100.314 9.16572 101.025 7.86828 101.719 6.60213C102.512 5.1544 103.283 3.74758 104.933 3.22417C106.295 2.79209 107.31 3.0642 108.464 3.37389C109.027 3.52493 109.624 3.6849 110.31 3.7765C114.573 4.34553 116.974 4.73542 121.135 5.9069C122.318 6.23993 123.303 6.58482 124.225 6.90736C125.516 7.3592 126.682 7.76717 128.089 8.0372C128.52 8.12005 129.063 8.21473 129.672 8.32106C132.467 8.80875 136.666 9.5414 138 10.5C138.191 10.6369 138.372 10.7649 138.545 10.8873C139.852 11.8091 140.71 12.4145 141.638 14.1129C142.81 16.2585 142.986 17.8426 143 20.3463C143.01 22.2206 142.426 25.1593 142.426 25.1593C142.426 25.1593 141.71 26.9741 141.208 27.6843C140.706 28.3946 140.778 27.6843 140.778 27.6843C140.921 27.2372 141.059 26.7768 141.208 26.1852C141.685 24.2911 141.925 22.7135 141.925 21.2142C141.925 19.715 141.064 17.1111 141.064 17.1111C141.064 17.1111 140.5 16 139.5 15C139.5 15 137.667 13.151 135.95 12.1988C133.408 10.7892 128.9 10.1676 128.9 10.1676C128.9 10.1676 126.044 9.57941 124.871 9.42747C120.634 8.87888 111.245 10.0091 103.943 10.888C98.6414 11.5261 94.44 12.0318 94.1084 11.6668C93.6907 11.207 94.5343 11.0629 95.7109 10.8618ZM105.352 5.68841C105.308 6.49545 105.237 7.80885 105.516 7.80886C105.871 7.80886 112.563 7.54787 115.694 7.38179C115.694 7.38179 114.128 5.81586 111.424 5.38879C108.719 4.96173 105.373 5.17526 105.373 5.17526C105.373 5.28274 105.363 5.46642 105.352 5.68841Z" fill="white"/>
<rect x="138" y="18.0779" width="1.28121" height="5.69427" rx="0.640605" transform="rotate(-3.48595 138 18.0779)" fill="white"/>
<path d="M5.6765 20.9126C5.77399 20.7287 5.97422 20.6279 6.18108 20.6511C6.46962 20.6835 6.67645 20.9449 6.64172 21.2332L5.90121 27.3793C5.86652 27.6673 5.62218 27.8839 5.33214 27.8839C5.07421 27.8839 4.84876 27.7125 4.79031 27.4612C4.62469 26.7493 4.33443 25.2845 4.46144 24.2185C4.6011 23.0462 5.34214 21.5434 5.6765 20.9126Z" fill="white"/>
<path d="M133.141 26.8051C134 25 134.339 22.7523 133.489 20.8849C132.64 19.0175 131.397 17.3384 129.839 15.9525C128.28 14.5667 126.441 13.5041 124.435 12.8311C122.428 12.1581 120.299 11.8892 118.179 12.0413C116.06 12.1934 113.996 12.7632 112.116 13.7151C110.237 14.6669 108.583 15.9803 107.257 17.5731C105.932 19.1658 104.964 21.0037 104.413 22.9715C103.863 24.9394 104.598 27.2322 105.666 29.2252C106.093 27.4457 105.887 25.9771 106.5 23.1109C106.773 21.8367 107.435 20.3905 108.5 19.1109C109.565 17.8313 111.49 16.3756 113 15.6109C114.51 14.8462 116.297 14.2331 118 14.1109C119.703 13.9887 121.491 14.0811 123.5 14.6109C125.444 15.1235 127.248 15.8867 128.5 17C129.752 18.1133 131.5 20 132 21.6109C132.5 23.2218 133 25 133.141 26.8051Z" fill="white"/>
<path d="M82.4797 19.8834C82.4797 19.8834 71 20.1567 71 20.4847C71 20.8127 75.2093 20.8127 75.2093 20.8127C75.2093 20.8127 78.407 20.6883 80.457 20.6487C83.7654 20.5849 85.6223 20.5639 88.9302 20.6487C91.6649 20.7189 93.2068 20.6912 95.9274 20.9767L96.0403 20.9886C97.8802 21.1815 98.9522 21.294 100.793 21.6874C102.109 21.9688 102.815 22.1794 104.127 22.562C104.619 22.7056 104.947 23.7647 104.947 23.7647L107.517 18.2434C107.517 18.2434 105.713 19.9927 104.947 20.4847C104.182 20.9767 99.1901 19.9563 95.4901 19.8834C93.8253 19.8506 92.8913 19.8834 91.2262 19.8834H82.4797Z" fill="white"/>
</svg>
