<svg width="911" height="1238" viewBox="0 0 911 1238" fill="none" xmlns="http://www.w3.org/2000/svg">
<path d="M901 747.935L901 746.494L902.406 746.494L902.406 746.458C901.328 745.832 900.789 744.909 900.789 743.69C900.789 742.793 901.026 742.09 901.5 741.581C901.975 741.077 902.605 740.825 903.39 740.825C905.072 740.825 906.05 741.815 906.326 743.795L906.704 746.494C908.233 746.494 908.998 745.875 908.998 744.639C908.998 743.555 908.628 742.577 907.89 741.704L909.367 741.704C909.929 742.588 910.21 743.608 910.21 744.762C910.21 746.877 909.091 747.935 906.853 747.935L901 747.935ZM905.552 746.494L905.253 744.323C905.16 743.655 904.993 743.151 904.752 742.811C904.518 742.471 904.099 742.301 903.496 742.301C903.056 742.301 902.696 742.457 902.415 742.767C902.139 743.083 902.001 743.502 902.001 744.024C902.001 744.739 902.25 745.328 902.749 745.791C903.252 746.259 903.888 746.494 904.656 746.494L905.552 746.494ZM901 777.111L910 777.111L910 781.031C910 781.916 909.803 782.613 909.411 783.123C909.018 783.638 908.482 783.896 907.802 783.896C906.636 783.896 905.927 783.322 905.675 782.173C905.5 783.55 904.805 784.239 903.592 784.239C902.86 784.239 902.245 783.955 901.747 783.386C901.249 782.824 901 782.124 901 781.286L901 777.111ZM908.769 778.552L906.238 778.552L906.238 780.714C906.238 781.875 906.689 782.455 907.591 782.455C908.376 782.455 908.769 781.933 908.769 780.89L908.769 778.552ZM905.007 778.552L902.23 778.552L902.23 781.048C902.23 782.214 902.702 782.797 903.645 782.797C904.553 782.797 905.007 782.144 905.007 780.837L905.007 778.552ZM908.769 818.767L908.769 816.069L901 816.069L901 814.628L908.769 814.628L908.769 811.92L910 811.92L910 818.767L908.769 818.767ZM900.789 850.72C900.789 849.39 901.208 848.327 902.045 847.53C902.889 846.739 904.005 846.343 905.394 846.343C906.906 846.343 908.086 846.756 908.936 847.583C909.786 848.409 910.21 849.525 910.21 850.931C910.21 852.273 909.797 853.319 908.971 854.069C908.145 854.825 907 855.203 905.535 855.203C904.099 855.203 902.948 854.796 902.081 853.981C901.219 853.172 900.789 852.086 900.789 850.72ZM908.998 850.826C908.998 849.9 908.681 849.168 908.048 848.629C907.421 848.089 906.554 847.82 905.447 847.82C904.38 847.82 903.54 848.092 902.924 848.637C902.309 849.182 902.001 849.912 902.001 850.826C902.001 851.757 902.303 852.472 902.907 852.97C903.51 853.474 904.369 853.726 905.482 853.726C906.607 853.726 907.474 853.474 908.083 852.97C908.693 852.472 908.998 851.757 908.998 850.826ZM901 891.436L901 889.995L908.769 889.995L908.769 885.407L901 885.407L901 883.965L910 883.965L910 891.436L901 891.436ZM901 927.257L901 925.815L902.406 925.815L902.406 925.78C901.328 925.153 900.789 924.23 900.789 923.011C900.789 922.115 901.026 921.412 901.5 920.902C901.975 920.398 902.605 920.146 903.39 920.146C905.072 920.146 906.05 921.136 906.326 923.117L906.704 925.815C908.233 925.815 908.998 925.197 908.998 923.961C908.998 922.877 908.628 921.898 907.89 921.025L909.367 921.025C909.929 921.91 910.21 922.929 910.21 924.084C910.21 926.199 909.091 927.257 906.853 927.257L901 927.257ZM905.552 925.815L905.253 923.644C905.16 922.976 904.993 922.472 904.752 922.132C904.518 921.793 904.099 921.623 903.496 921.623C903.056 921.623 902.696 921.778 902.415 922.089C902.139 922.405 902.001 922.824 902.001 923.345C902.001 924.06 902.25 924.649 902.749 925.112C903.252 925.581 903.888 925.815 904.656 925.815L905.552 925.815ZM902.3 957.909L902.3 957.874L896.86 957.874L896.86 956.432L910 956.432L910 957.874L908.417 957.874L908.417 957.909C909.613 958.618 910.21 959.655 910.21 961.02C910.21 962.18 909.806 963.086 908.998 963.736C908.195 964.386 907.117 964.712 905.763 964.712C904.257 964.712 903.05 964.345 902.142 963.613C901.24 962.881 900.789 961.879 900.789 960.607C900.789 959.441 901.292 958.542 902.3 957.909ZM905.93 957.874L904.673 957.874C903.929 957.874 903.296 958.114 902.775 958.594C902.259 959.081 902.001 959.696 902.001 960.44C902.001 961.313 902.335 961.996 903.003 962.488C903.671 962.986 904.6 963.235 905.79 963.235C906.791 963.235 907.577 963.004 908.145 962.541C908.713 962.078 908.998 961.451 908.998 960.66C908.998 959.822 908.705 959.148 908.119 958.638C907.539 958.129 906.809 957.874 905.93 957.874ZM901 1000.95L901 998.924L905.324 994.951L905.324 994.916L901 994.916L901 993.474L910 993.474L910 994.916L905.877 994.916L905.877 994.951L910 998.73L910 1000.62L905.658 996.445L901 1000.95Z" fill="#2F2F2F" fill-opacity="0.25"/>
<path d="M413.673 13.9999V4.99994H417.593C418.478 4.99994 419.175 5.19623 419.685 5.58881C420.2 5.98138 420.458 6.51752 420.458 7.1972C420.458 8.36322 419.884 9.0722 418.735 9.32416C420.112 9.49994 420.801 10.1943 420.801 11.4072C420.801 12.1396 420.517 12.7548 419.948 13.2529C419.386 13.7509 418.686 13.9999 417.848 13.9999H413.673ZM415.114 6.23041V8.76166H417.276C418.437 8.76166 419.017 8.31049 419.017 7.40814C419.017 6.62299 418.495 6.23041 417.452 6.23041H415.114ZM415.114 9.99213V12.7695H417.61C418.776 12.7695 419.359 12.2978 419.359 11.3544C419.359 10.4462 418.706 9.99213 417.399 9.99213H415.114ZM442.062 13.9999H440.638V4.99994H442.062V13.9999ZM432.218 13.9999V4.99994H433.659V8.45404H436.085C437.005 8.45404 437.734 8.69427 438.273 9.17474C438.818 9.65521 439.091 10.3261 439.091 11.1874C439.091 12.0546 438.818 12.7402 438.273 13.2441C437.729 13.748 437.04 13.9999 436.208 13.9999H432.218ZM433.659 9.6933V12.7695H435.821C437.017 12.7695 437.614 12.2421 437.614 11.1874C437.614 10.1913 437.011 9.6933 435.804 9.6933H433.659ZM460.958 0.570251V1.92377C460.718 2.09955 460.331 2.23138 459.798 2.31927C458.479 2.51849 457.557 2.71185 457.029 2.89935C456.508 3.08099 456.077 3.47357 455.737 4.07709C455.403 4.6806 455.189 5.56244 455.096 6.7226H455.131C455.834 5.70306 456.836 5.1933 458.137 5.1933C459.326 5.1933 460.284 5.60052 461.011 6.41498C461.737 7.22943 462.101 8.30463 462.101 9.64056C462.101 11.0175 461.72 12.1249 460.958 12.9628C460.202 13.7949 459.183 14.2109 457.899 14.2109C456.517 14.2109 455.45 13.7216 454.7 12.7431C453.956 11.7587 453.584 10.3554 453.584 8.53314C453.584 7.11517 453.719 5.914 453.988 4.92963C454.258 3.93939 454.63 3.19525 455.104 2.6972C455.585 2.19916 456.115 1.85638 456.695 1.66888C457.281 1.48138 458.283 1.26166 459.701 1.0097C460.264 0.880798 460.683 0.734314 460.958 0.570251ZM455.078 8.14642V9.39447C455.084 9.86322 455.154 10.3232 455.289 10.7744C455.424 11.2255 455.617 11.624 455.869 11.9697C456.121 12.3154 456.417 12.5732 456.757 12.7431C457.103 12.913 457.495 12.998 457.935 12.998C458.737 12.998 459.385 12.6992 459.877 12.1015C460.375 11.498 460.624 10.7275 460.624 9.78998C460.624 8.75873 460.369 7.94135 459.859 7.33783C459.355 6.72845 458.673 6.42377 457.812 6.42377C456.604 6.42377 455.693 6.99799 455.078 8.14642ZM480.654 9.86029H474.3C474.323 10.8622 474.593 11.6357 475.108 12.1806C475.624 12.7255 476.333 12.998 477.235 12.998C478.249 12.998 479.181 12.664 480.03 11.996V13.3495C479.239 13.9238 478.193 14.2109 476.893 14.2109C475.621 14.2109 474.622 13.8036 473.896 12.9892C473.169 12.1689 472.806 11.0175 472.806 9.5351C472.806 8.1347 473.201 6.99506 473.992 6.11615C474.789 5.23138 475.776 4.789 476.954 4.789C478.132 4.789 479.043 5.16986 479.688 5.93158C480.332 6.6933 480.654 7.75092 480.654 9.10443V9.86029ZM479.178 8.63861C479.172 7.80658 478.97 7.15912 478.571 6.69623C478.179 6.23334 477.631 6.00189 476.928 6.00189C476.248 6.00189 475.671 6.24506 475.196 6.73138C474.722 7.21771 474.429 7.85345 474.317 8.63861H479.178ZM493.319 12.6992H493.284V18.1396H491.843V4.99994H493.284V6.58197H493.319C494.028 5.38666 495.065 4.789 496.431 4.789C497.591 4.789 498.496 5.1933 499.146 6.00189C499.797 6.80463 500.122 7.88275 500.122 9.23627C500.122 10.7421 499.756 11.9492 499.023 12.8574C498.291 13.7597 497.289 14.2109 496.018 14.2109C494.852 14.2109 493.952 13.707 493.319 12.6992ZM493.284 9.06927V10.3261C493.284 11.0703 493.524 11.7031 494.005 12.2245C494.491 12.7402 495.106 12.998 495.851 12.998C496.724 12.998 497.406 12.664 497.898 11.996C498.396 11.3281 498.646 10.3994 498.646 9.2099C498.646 8.20795 498.414 7.42279 497.951 6.85443C497.488 6.28607 496.861 6.00189 496.07 6.00189C495.232 6.00189 494.559 6.29486 494.049 6.8808C493.539 7.46088 493.284 8.19037 493.284 9.06927ZM517.867 13.9999H516.426V12.5937H516.391C515.764 13.6718 514.841 14.2109 513.622 14.2109C512.726 14.2109 512.022 13.9736 511.513 13.499C511.009 13.0244 510.757 12.3945 510.757 11.6093C510.757 9.92767 511.747 8.94916 513.728 8.67377L516.426 8.29584C516.426 6.76654 515.808 6.00189 514.571 6.00189C513.487 6.00189 512.509 6.37103 511.636 7.10931V5.63275C512.521 5.07025 513.54 4.789 514.694 4.789C516.81 4.789 517.867 5.90814 517.867 8.14642V13.9999ZM516.426 9.4472L514.255 9.74603C513.587 9.83978 513.083 10.0068 512.743 10.247C512.403 10.4814 512.233 10.9003 512.233 11.5038C512.233 11.9433 512.389 12.3036 512.699 12.5849C513.016 12.8603 513.435 12.998 513.956 12.998C514.671 12.998 515.26 12.749 515.723 12.2509C516.191 11.747 516.426 11.1113 516.426 10.3437V9.4472ZM537.124 13.9999H535.823V6.81927C535.694 7.07123 535.498 7.42572 535.234 7.88275L531.077 13.9999H529.583V4.99994H530.901V12.0927C530.972 11.9228 531.124 11.6328 531.358 11.2226L535.63 4.99994H537.124V13.9999ZM536.597 0.622986C536.509 1.44916 536.175 2.10248 535.595 2.58295C535.021 3.05756 534.3 3.29486 533.433 3.29486C532.542 3.29486 531.815 3.05756 531.253 2.58295C530.696 2.10248 530.392 1.44916 530.339 0.622986H531.763C531.845 1.72455 532.407 2.27533 533.45 2.27533C533.919 2.27533 534.306 2.13177 534.61 1.84467C534.915 1.5517 535.103 1.14447 535.173 0.622986H536.597ZM569.424 13.9999H567.982V12.5937H567.947C567.32 13.6718 566.397 14.2109 565.179 14.2109C564.282 14.2109 563.579 13.9736 563.069 13.499C562.565 13.0244 562.313 12.3945 562.313 11.6093C562.313 9.92767 563.304 8.94916 565.284 8.67377L567.982 8.29584C567.982 6.76654 567.364 6.00189 566.128 6.00189C565.044 6.00189 564.065 6.37103 563.192 7.10931V5.63275C564.077 5.07025 565.097 4.789 566.251 4.789C568.366 4.789 569.424 5.90814 569.424 8.14642V13.9999ZM567.982 9.4472L565.812 9.74603C565.144 9.83978 564.64 10.0068 564.3 10.247C563.96 10.4814 563.79 10.9003 563.79 11.5038C563.79 11.9433 563.945 12.3036 564.256 12.5849C564.572 12.8603 564.991 12.998 565.513 12.998C566.228 12.998 566.816 12.749 567.279 12.2509C567.748 11.747 567.982 11.1113 567.982 10.3437V9.4472ZM581.14 13.9999V4.99994H585.06C585.944 4.99994 586.642 5.19623 587.151 5.58881C587.667 5.98138 587.925 6.51752 587.925 7.1972C587.925 8.36322 587.351 9.0722 586.202 9.32416C587.579 9.49994 588.268 10.1943 588.268 11.4072C588.268 12.1396 587.983 12.7548 587.415 13.2529C586.853 13.7509 586.152 13.9999 585.314 13.9999H581.14ZM582.581 6.23041V8.76166H584.743C585.903 8.76166 586.483 8.31049 586.483 7.40814C586.483 6.62299 585.962 6.23041 584.919 6.23041H582.581ZM582.581 9.99213V12.7695H585.077C586.243 12.7695 586.826 12.2978 586.826 11.3544C586.826 10.4462 586.173 9.99213 584.866 9.99213H582.581ZM605.336 6.23041H602.638V13.9999H601.196V6.23041H598.489V4.99994H605.336V6.23041ZM619.829 14.2109C618.499 14.2109 617.436 13.7919 616.639 12.954C615.848 12.1103 615.452 10.9941 615.452 9.60541C615.452 8.09369 615.865 6.91302 616.691 6.06342C617.518 5.21381 618.634 4.789 620.04 4.789C621.382 4.789 622.428 5.20209 623.178 6.02826C623.934 6.85443 624.312 7.99994 624.312 9.46478C624.312 10.9003 623.904 12.0517 623.09 12.9189C622.281 13.7802 621.194 14.2109 619.829 14.2109ZM619.935 6.00189C619.009 6.00189 618.276 6.3183 617.737 6.95111C617.198 7.57806 616.929 8.44525 616.929 9.55267C616.929 10.6191 617.201 11.4599 617.746 12.0751C618.291 12.6904 619.021 12.998 619.935 12.998C620.866 12.998 621.581 12.6962 622.079 12.0927C622.583 11.4892 622.835 10.6308 622.835 9.51752C622.835 8.39252 622.583 7.52533 622.079 6.91595C621.581 6.30658 620.866 6.00189 619.935 6.00189ZM645.335 13.9999H643.911V6.58197C643.782 6.95697 643.583 7.50775 643.313 8.23431L641.063 13.9999H639.771L637.451 8.23431C637.328 7.92377 637.129 7.37299 636.854 6.58197V13.9999H635.614V4.99994H637.451L639.824 10.871C639.994 11.2988 640.211 11.8906 640.475 12.6464L641.116 10.9062L643.419 4.99994H645.335V13.9999ZM661.015 14.2109C659.685 14.2109 658.621 13.7919 657.824 12.954C657.033 12.1103 656.638 10.9941 656.638 9.60541C656.638 8.09369 657.051 6.91302 657.877 6.06342C658.703 5.21381 659.819 4.789 661.226 4.789C662.567 4.789 663.613 5.20209 664.363 6.02826C665.119 6.85443 665.497 7.99994 665.497 9.46478C665.497 10.9003 665.09 12.0517 664.275 12.9189C663.467 13.7802 662.38 14.2109 661.015 14.2109ZM661.12 6.00189C660.194 6.00189 659.462 6.3183 658.923 6.95111C658.384 7.57806 658.114 8.44525 658.114 9.55267C658.114 10.6191 658.387 11.4599 658.932 12.0751C659.477 12.6904 660.206 12.998 661.12 12.998C662.052 12.998 662.767 12.6962 663.265 12.0927C663.769 11.4892 664.021 10.6308 664.021 9.51752C664.021 8.39252 663.769 7.52533 663.265 6.91595C662.767 6.30658 662.052 6.00189 661.12 6.00189ZM683.761 0.570251V1.92377C683.521 2.09955 683.134 2.23138 682.601 2.31927C681.282 2.51849 680.359 2.71185 679.832 2.89935C679.311 3.08099 678.88 3.47357 678.54 4.07709C678.206 4.6806 677.992 5.56244 677.898 6.7226H677.934C678.637 5.70306 679.639 5.1933 680.939 5.1933C682.129 5.1933 683.087 5.60052 683.813 6.41498C684.54 7.22943 684.903 8.30463 684.903 9.64056C684.903 11.0175 684.522 12.1249 683.761 12.9628C683.005 13.7949 681.985 14.2109 680.702 14.2109C679.319 14.2109 678.253 13.7216 677.503 12.7431C676.759 11.7587 676.387 10.3554 676.387 8.53314C676.387 7.11517 676.521 5.914 676.791 4.92963C677.061 3.93939 677.433 3.19525 677.907 2.6972C678.388 2.19916 678.918 1.85638 679.498 1.66888C680.084 1.48138 681.086 1.26166 682.504 1.0097C683.066 0.880798 683.485 0.734314 683.761 0.570251ZM677.881 8.14642V9.39447C677.887 9.86322 677.957 10.3232 678.092 10.7744C678.227 11.2255 678.42 11.624 678.672 11.9697C678.924 12.3154 679.22 12.5732 679.56 12.7431C679.905 12.913 680.298 12.998 680.737 12.998C681.54 12.998 682.188 12.6992 682.68 12.1015C683.178 11.498 683.427 10.7275 683.427 9.78998C683.427 8.75873 683.172 7.94135 682.662 7.33783C682.158 6.72845 681.476 6.42377 680.614 6.42377C679.407 6.42377 678.496 6.99799 677.881 8.14642ZM703.765 13.9999H702.464V6.81927C702.335 7.07123 702.139 7.42572 701.875 7.88275L697.718 13.9999H696.224V4.99994H697.542V12.0927C697.612 11.9228 697.765 11.6328 697.999 11.2226L702.271 4.99994H703.765V13.9999ZM722.248 13.9999H720.815V6.22162H718.724C718.483 9.13373 718.07 11.1786 717.484 12.3564C716.904 13.5341 716.122 14.123 715.138 14.123C714.839 14.123 714.581 14.082 714.364 13.9999V12.7607C714.569 12.8661 714.792 12.9189 715.032 12.9189C716.321 12.9189 717.15 10.2792 717.52 4.99994H722.248V13.9999ZM734.175 13.9999V4.99994H735.616V8.45404H738.042C738.962 8.45404 739.691 8.69427 740.23 9.17474C740.775 9.65521 741.048 10.3261 741.048 11.1874C741.048 12.0546 740.775 12.7402 740.23 13.2441C739.686 13.748 738.997 13.9999 738.165 13.9999H734.175ZM735.616 9.6933V12.7695H737.778C738.974 12.7695 739.571 12.2421 739.571 11.1874C739.571 10.1913 738.968 9.6933 737.761 9.6933H735.616Z" fill="#2F2F2F" fill-opacity="0.25"/>
<path d="M908 707.887L910.887 705L908 702.113L905.113 705L908 707.887ZM774.113 8L777 10.8867L779.887 8L777 5.11322L774.113 8ZM908 8.00001L908.5 8.00001L908.5 7.50001L908 7.50001L908 8.00001ZM908.5 705L908.5 8.00001L907.5 8.00001L907.5 705L908.5 705ZM908 7.50001L777 7.5L777 8.5L908 8.50001L908 7.50001Z" fill="#446F9D" fill-opacity="0.29"/>
<path d="M908 1237.88L910.887 1235L908 1232.11L905.113 1235L908 1237.88ZM908 1033.11L905.113 1036L908 1038.88L910.887 1036L908 1033.11ZM908.5 1235L908.5 1036L907.5 1036L907.5 1235L908.5 1235Z" fill="#446F9D" fill-opacity="0.29"/>
<path d="M379.887 10.0001L377 7.11331L374.113 10.0001L377 12.8868L379.887 10.0001ZM0.113495 10.0001L3.00024 12.8868L5.88699 10.0001L3.00024 7.11331L0.113495 10.0001ZM377 9.50006H3.00024V10.5001H377V9.50006Z" fill="#446F9D" fill-opacity="0.29"/>
</svg>
