<svg width="15" height="1242" viewBox="0 0 15 1242" fill="none" xmlns="http://www.w3.org/2000/svg">
<path d="M9.9997 469.061L9.9997 470.502L8.59345 470.502L8.59345 470.537C9.67157 471.164 10.2106 472.087 10.2106 473.306C10.2106 474.202 9.97333 474.905 9.49872 475.415C9.02411 475.919 8.39423 476.171 7.60907 476.171C5.92743 476.171 4.94891 475.181 4.67352 473.2L4.29559 470.502C2.7663 470.502 2.00165 471.12 2.00165 472.357C2.00165 473.441 2.37079 474.419 3.10907 475.292L1.63251 475.292C1.07001 474.407 0.788758 473.388 0.788758 472.234C0.788758 470.118 1.9079 469.061 4.14618 469.061L9.9997 469.061ZM5.44696 470.502L5.74579 472.673C5.83954 473.341 6.00653 473.845 6.24677 474.185C6.48114 474.525 6.90009 474.694 7.5036 474.694C7.94305 474.694 8.30341 474.539 8.58466 474.229C8.86005 473.912 8.99774 473.493 8.99774 472.972C8.99774 472.257 8.74872 471.668 8.25067 471.205C7.74677 470.736 7.11102 470.502 6.34345 470.502L5.44696 470.502ZM9.9997 439.885L0.9997 439.885L0.9997 435.965C0.9997 435.08 1.19599 434.383 1.58857 433.873C1.98115 433.358 2.51728 433.1 3.19697 433.1C4.36298 433.1 5.07197 433.674 5.32392 434.822C5.4997 433.445 6.19404 432.757 7.40693 432.757C8.13935 432.757 8.75458 433.041 9.25263 433.609C9.75068 434.172 9.9997 434.872 9.9997 435.71L9.9997 439.885ZM2.23017 438.443L4.76142 438.443L4.76142 436.281C4.76142 435.121 4.31025 434.541 3.4079 434.541C2.62275 434.541 2.23017 435.063 2.23017 436.106L2.23017 438.443ZM5.99189 438.443L8.76923 438.443L8.76923 435.947C8.76923 434.781 8.29755 434.198 7.35419 434.198C6.44599 434.198 5.99189 434.852 5.99189 436.158L5.99189 438.443ZM2.23017 398.229L2.23017 400.927L9.9997 400.927L9.9997 402.368L2.23017 402.368L2.23017 405.075L0.999704 405.075L0.999705 398.229L2.23017 398.229ZM10.2106 366.275C10.2106 367.605 9.7917 368.669 8.95381 369.466C8.11006 370.257 6.99385 370.652 5.60518 370.652C4.09346 370.652 2.91279 370.239 2.06319 369.413C1.21358 368.587 0.788772 367.471 0.788772 366.064C0.788772 364.723 1.20186 363.677 2.02803 362.927C2.8542 362.171 3.99971 361.793 5.46455 361.793C6.9001 361.793 8.05147 362.2 8.91866 363.015C9.77998 363.823 10.2106 364.91 10.2106 366.275ZM2.00166 366.17C2.00166 367.096 2.31807 367.828 2.95088 368.367C3.57783 368.906 4.44502 369.176 5.55244 369.176C6.61885 369.176 7.45967 368.903 8.0749 368.358C8.69014 367.814 8.99776 367.084 8.99776 366.17C8.99776 365.238 8.696 364.523 8.09248 364.025C7.48897 363.522 6.63057 363.27 5.51729 363.27C4.39229 363.27 3.5251 363.522 2.91573 364.025C2.30635 364.523 2.00166 365.238 2.00166 366.17ZM9.99971 325.56L9.99971 327.001L2.23018 327.001L2.23018 331.589L9.99971 331.589L9.99971 333.03L0.999714 333.03L0.999715 325.56L9.99971 325.56ZM9.99972 289.739L9.99972 291.181L8.59347 291.181L8.59347 291.216C9.67159 291.843 10.2107 292.766 10.2107 293.984C10.2107 294.881 9.97335 295.584 9.49874 296.094C9.02413 296.598 8.39425 296.85 7.60909 296.85C5.92745 296.85 4.94894 295.859 4.67355 293.879L4.29562 291.181C2.76632 291.181 2.00167 291.799 2.00167 293.035C2.00167 294.119 2.37081 295.098 3.10909 295.971L1.63253 295.971C1.07003 295.086 0.788781 294.066 0.788781 292.912C0.788782 290.797 1.90792 289.739 4.1462 289.739L9.99972 289.739ZM5.44698 291.181L5.74581 293.352C5.83956 294.019 6.00655 294.523 6.24679 294.863C6.48116 295.203 6.90011 295.373 7.50362 295.373C7.94308 295.373 8.30343 295.218 8.58468 294.907C8.86007 294.591 8.99777 294.172 8.99777 293.65C8.99777 292.936 8.74874 292.347 8.2507 291.884C7.74679 291.415 7.11105 291.181 6.34347 291.181L5.44698 291.181ZM8.69894 259.087L8.69894 259.122L14.1394 259.122L14.1394 260.563L0.999723 260.563L0.999723 259.122L2.58175 259.122L2.58175 259.087C1.38644 258.378 0.788786 257.341 0.788786 255.975C0.788786 254.815 1.19308 253.91 2.00168 253.26C2.80441 252.609 3.88254 252.284 5.23605 252.284C6.74191 252.284 7.94894 252.65 8.85715 253.383C9.75949 254.115 10.2107 255.117 10.2107 256.389C10.2107 257.555 9.70675 258.454 8.69894 259.087ZM5.06906 259.122L6.3259 259.122C7.07004 259.122 7.70285 258.882 8.22433 258.401C8.73996 257.915 8.99777 257.3 8.99777 256.556C8.99777 255.683 8.66379 255 7.99582 254.508C7.32785 254.01 6.39914 253.761 5.20969 253.761C4.20773 253.761 3.42258 253.992 2.85422 254.455C2.28586 254.918 2.00168 255.545 2.00168 256.336C2.00168 257.174 2.29465 257.848 2.88058 258.357C3.46066 258.867 4.19015 259.122 5.06906 259.122ZM9.99973 216.051L9.99973 218.072L5.67551 222.045L5.67551 222.08L9.99973 222.08L9.99973 223.521L0.999728 223.521L0.999728 222.08L5.1218 222.08L5.1218 222.045L0.999729 218.265L0.999729 216.376L5.34153 220.551L9.99973 216.051Z" fill="#2F2F2F" fill-opacity="0.25"/>
<path d="M4.99994 509.113L2.11319 512L4.99994 514.887L7.88669 512L4.99994 509.113ZM4.99997 1241.89L7.88672 1239L4.99997 1236.11L2.11322 1239L4.99997 1241.89ZM4.49994 512L4.49997 1239L5.49997 1239L5.49994 512L4.49994 512Z" fill="#446F9D" fill-opacity="0.29"/>
<path d="M5 0.113127L2.11325 2.99988L5 5.88663L7.88675 2.99988L5 0.113127ZM5.00001 183.887L7.88676 181L5.00001 178.113L2.11326 181L5.00001 183.887ZM4.5 2.99988L4.50001 181L5.50001 181L5.5 2.99988L4.5 2.99988Z" fill="#446F9D" fill-opacity="0.29"/>
</svg>
