<svg width="1257" height="707" viewBox="0 0 1257 707" fill="none" xmlns="http://www.w3.org/2000/svg">
<path d="M1237.79 130.286C1237.79 128.956 1238.21 127.893 1239.05 127.096C1239.89 126.305 1241.01 125.909 1242.39 125.909C1243.91 125.909 1245.09 126.322 1245.94 127.148C1246.79 127.975 1247.21 129.091 1247.21 130.497C1247.21 131.839 1246.8 132.885 1245.97 133.635C1245.15 134.391 1244 134.769 1242.54 134.769C1241.1 134.769 1239.95 134.361 1239.08 133.547C1238.22 132.738 1237.79 131.651 1237.79 130.286ZM1246 130.392C1246 129.466 1245.68 128.733 1245.05 128.194C1244.42 127.655 1243.55 127.386 1242.45 127.386C1241.38 127.386 1240.54 127.658 1239.93 128.203C1239.31 128.748 1239 129.478 1239 130.392C1239 131.323 1239.3 132.038 1239.91 132.536C1240.51 133.04 1241.37 133.292 1242.48 133.292C1243.61 133.292 1244.47 133.04 1245.08 132.536C1245.69 132.038 1246 131.323 1246 130.392ZM1251.43 153.032L1250.08 153.032C1249.9 152.792 1249.77 152.405 1249.68 151.872C1249.48 150.554 1249.29 149.631 1249.1 149.104C1248.92 148.582 1248.53 148.151 1247.92 147.812C1247.32 147.478 1246.44 147.264 1245.28 147.17L1245.28 147.205C1246.3 147.908 1246.81 148.91 1246.81 150.211C1246.81 151.4 1246.4 152.358 1245.59 153.085C1244.77 153.812 1243.7 154.175 1242.36 154.175C1240.98 154.175 1239.88 153.794 1239.04 153.032C1238.21 152.276 1237.79 151.257 1237.79 149.974C1237.79 148.591 1238.28 147.524 1239.26 146.774C1240.24 146.03 1241.64 145.658 1243.47 145.658C1244.89 145.658 1246.09 145.793 1247.07 146.062C1248.06 146.332 1248.8 146.704 1249.3 147.179C1249.8 147.659 1250.14 148.189 1250.33 148.77C1250.52 149.355 1250.74 150.357 1250.99 151.775C1251.12 152.338 1251.27 152.757 1251.43 153.032ZM1243.85 147.152L1242.61 147.152C1242.14 147.158 1241.68 147.229 1241.23 147.363C1240.77 147.498 1240.38 147.691 1240.03 147.943C1239.68 148.195 1239.43 148.491 1239.26 148.831C1239.09 149.177 1239 149.569 1239 150.009C1239 150.812 1239.3 151.459 1239.9 151.951C1240.5 152.449 1241.27 152.698 1242.21 152.698C1243.24 152.698 1244.06 152.443 1244.66 151.934C1245.27 151.43 1245.58 150.747 1245.58 149.886C1245.58 148.679 1245 147.768 1243.85 147.152ZM1238 165.495L1247 165.495L1247 166.937L1243.55 166.937L1243.55 169.362C1243.55 170.282 1243.31 171.012 1242.83 171.551C1242.34 172.096 1241.67 172.368 1240.81 172.368C1239.95 172.368 1239.26 172.096 1238.76 171.551C1238.25 171.006 1238 170.317 1238 169.485L1238 165.495ZM1242.31 166.937L1239.23 166.937L1239.23 169.099C1239.23 170.294 1239.76 170.892 1240.81 170.892C1241.81 170.892 1242.31 170.288 1242.31 169.081L1242.31 166.937ZM1238 189.718L1238 188.276L1241.73 188.276L1241.73 187.072C1241.73 186.492 1241.26 185.965 1240.32 185.49L1238 184.321L1238 182.651L1240.78 184.163C1241.42 184.515 1241.85 184.939 1242.05 185.437C1242.15 184.734 1242.4 184.198 1242.83 183.829C1243.25 183.46 1243.77 183.275 1244.41 183.275C1245.2 183.275 1245.83 183.562 1246.3 184.137C1246.77 184.717 1247 185.528 1247 186.571L1247 189.718L1238 189.718ZM1242.93 188.276L1245.77 188.276L1245.77 186.571C1245.77 185.358 1245.31 184.752 1244.39 184.752C1243.42 184.752 1242.93 185.341 1242.93 186.519L1242.93 188.276ZM1238.26 200.862L1239.67 200.862C1239.23 201.647 1239.01 202.564 1239.01 203.613C1239.01 205.201 1239.51 205.995 1240.52 205.995C1241.52 205.995 1242.02 205.125 1242.02 203.385L1242.02 202.497L1243.24 202.497L1243.24 203.341C1243.24 204.87 1243.71 205.635 1244.66 205.635C1245.07 205.635 1245.39 205.459 1245.63 205.107C1245.87 204.756 1245.99 204.275 1245.99 203.666C1245.99 202.793 1245.77 201.917 1245.33 201.038L1246.68 201.038C1247.04 202.034 1247.22 202.948 1247.22 203.78C1247.22 205.972 1246.41 207.067 1244.8 207.067C1244.28 207.067 1243.83 206.903 1243.45 206.575C1243.07 206.253 1242.83 205.799 1242.7 205.213L1242.66 205.213C1242.61 205.881 1242.38 206.417 1241.98 206.821C1241.58 207.226 1241.08 207.428 1240.47 207.428C1239.65 207.428 1239 207.097 1238.51 206.435C1238.02 205.772 1237.78 204.861 1237.78 203.701C1237.78 202.465 1237.94 201.519 1238.26 200.862ZM1238 225.094L1238 223.652L1239.41 223.652L1239.41 223.617C1238.33 222.99 1237.79 222.067 1237.79 220.849C1237.79 219.952 1238.03 219.249 1238.5 218.739C1238.98 218.235 1239.61 217.983 1240.39 217.983C1242.07 217.983 1243.05 218.974 1243.33 220.954L1243.7 223.652C1245.23 223.652 1246 223.034 1246 221.798C1246 220.714 1245.63 219.735 1244.89 218.862L1246.37 218.862C1246.93 219.747 1247.21 220.767 1247.21 221.921C1247.21 224.036 1246.09 225.094 1243.85 225.094L1238 225.094ZM1242.55 223.652L1242.25 221.481C1242.16 220.813 1241.99 220.31 1241.75 219.97C1241.52 219.63 1241.1 219.46 1240.5 219.46C1240.06 219.46 1239.7 219.615 1239.42 219.926C1239.14 220.242 1239 220.661 1239 221.183C1239 221.897 1239.25 222.486 1239.75 222.949C1240.25 223.418 1240.89 223.652 1241.66 223.652L1242.55 223.652ZM1245.77 242.461L1245.77 239.763L1238 239.763L1238 238.321L1245.77 238.321L1245.77 235.614L1247 235.614L1247 242.461L1245.77 242.461ZM1242.14 260.426L1242.14 254.071C1241.14 254.095 1240.36 254.364 1239.82 254.88C1239.27 255.396 1239 256.104 1239 257.007C1239 258.021 1239.34 258.952 1240 259.802L1238.65 259.802C1238.08 259.011 1237.79 257.965 1237.79 256.664C1237.79 255.393 1238.2 254.394 1239.01 253.667C1239.83 252.94 1240.98 252.577 1242.47 252.577C1243.87 252.577 1245.01 252.973 1245.88 253.764C1246.77 254.561 1247.21 255.548 1247.21 256.726C1247.21 257.903 1246.83 258.814 1246.07 259.459C1245.31 260.104 1244.25 260.426 1242.9 260.426L1242.14 260.426ZM1243.36 258.949C1244.19 258.943 1244.84 258.741 1245.3 258.343C1245.77 257.95 1246 257.402 1246 256.699C1246 256.02 1245.76 255.442 1245.27 254.968C1244.78 254.493 1244.15 254.2 1243.36 254.089L1243.36 258.949ZM1238 278.18L1238 276.747L1245.78 276.747L1245.78 274.655C1242.87 274.415 1240.82 274.002 1239.64 273.416C1238.47 272.836 1237.88 272.054 1237.88 271.069C1237.88 270.771 1237.92 270.513 1238 270.296L1239.24 270.296C1239.13 270.501 1239.08 270.724 1239.08 270.964C1239.08 272.253 1241.72 273.082 1247 273.451L1247 278.18L1238 278.18ZM1238 290.106L1247 290.106L1247 291.548L1243.55 291.548L1243.55 293.974C1243.55 294.894 1243.31 295.623 1242.83 296.162C1242.34 296.707 1241.67 296.979 1240.81 296.979C1239.95 296.979 1239.26 296.707 1238.76 296.162C1238.25 295.617 1238 294.929 1238 294.097L1238 290.106ZM1242.31 291.548L1239.23 291.548L1239.23 293.71C1239.23 294.905 1239.76 295.503 1240.81 295.503C1241.81 295.503 1242.31 294.899 1242.31 293.692L1242.31 291.548ZM1238 315.647L1238 314.206L1242.09 314.206L1242.09 309.618L1238 309.618L1238 308.177L1247 308.177L1247 309.618L1243.31 309.618L1243.31 314.206L1247 314.206L1247 315.647L1238 315.647ZM1237.79 331.327C1237.79 329.997 1238.21 328.934 1239.05 328.137C1239.89 327.346 1241.01 326.95 1242.39 326.95C1243.91 326.95 1245.09 327.363 1245.94 328.189C1246.79 329.016 1247.21 330.132 1247.21 331.538C1247.21 332.88 1246.8 333.926 1245.97 334.676C1245.15 335.432 1244 335.81 1242.54 335.81C1241.1 335.81 1239.95 335.402 1239.08 334.588C1238.22 333.779 1237.79 332.692 1237.79 331.327ZM1246 331.433C1246 330.507 1245.68 329.774 1245.05 329.235C1244.42 328.696 1243.55 328.427 1242.45 328.427C1241.38 328.427 1240.54 328.699 1239.93 329.244C1239.31 329.789 1239 330.519 1239 331.433C1239 332.364 1239.3 333.079 1239.91 333.577C1240.51 334.081 1241.37 334.333 1242.48 334.333C1243.61 334.333 1244.47 334.081 1245.08 333.577C1245.69 333.079 1246 332.364 1246 331.433ZM1238 368.522L1238 367.081L1245.77 367.081L1245.77 362.493L1238 362.493L1238 361.052L1247 361.052L1247 368.522L1238 368.522ZM1239.3 381.917L1239.3 381.882L1233.86 381.882L1233.86 380.44L1247 380.44L1247 381.882L1245.42 381.882L1245.42 381.917C1246.61 382.626 1247.21 383.663 1247.21 385.028C1247.21 386.188 1246.81 387.094 1246 387.744C1245.2 388.395 1244.12 388.72 1242.76 388.72C1241.26 388.72 1240.05 388.354 1239.14 387.621C1238.24 386.889 1237.79 385.887 1237.79 384.615C1237.79 383.449 1238.29 382.55 1239.3 381.917ZM1242.93 381.882L1241.67 381.882C1240.93 381.882 1240.3 382.122 1239.78 382.603C1239.26 383.089 1239 383.704 1239 384.448C1239 385.321 1239.34 386.004 1240 386.496C1240.67 386.994 1241.6 387.243 1242.79 387.243C1243.79 387.243 1244.58 387.012 1245.15 386.549C1245.71 386.086 1246 385.459 1246 384.668C1246 383.83 1245.71 383.156 1245.12 382.646C1244.54 382.137 1243.81 381.882 1242.93 381.882ZM1237.79 403.784C1237.79 402.454 1238.21 401.391 1239.05 400.594C1239.89 399.803 1241.01 399.407 1242.39 399.407C1243.91 399.407 1245.09 399.82 1245.94 400.646C1246.79 401.473 1247.21 402.589 1247.21 403.995C1247.21 405.337 1246.8 406.383 1245.97 407.133C1245.15 407.889 1244 408.267 1242.54 408.267C1241.1 408.267 1239.95 407.859 1239.08 407.045C1238.22 406.236 1237.79 405.149 1237.79 403.784ZM1246 403.89C1246 402.964 1245.68 402.231 1245.05 401.692C1244.42 401.153 1243.55 400.884 1242.45 400.884C1241.38 400.884 1240.54 401.156 1239.93 401.701C1239.31 402.246 1239 402.976 1239 403.89C1239 404.821 1239.3 405.536 1239.91 406.034C1240.51 406.538 1241.37 406.79 1242.48 406.79C1243.61 406.79 1244.47 406.538 1245.08 406.034C1245.69 405.536 1246 404.821 1246 403.89ZM1238 426.82L1238 425.388L1241.62 425.388C1241.05 424.333 1240.76 423.36 1240.76 422.47C1240.76 420.454 1241.83 419.446 1243.96 419.446L1247 419.446L1247 420.888L1244.03 420.888C1242.71 420.888 1242.05 421.456 1242.05 422.593C1242.05 423.46 1242.3 424.392 1242.81 425.388L1247 425.388L1247 426.82L1238 426.82ZM1245.77 444.398L1245.77 441.7L1238 441.7L1238 440.259L1245.77 440.259L1245.77 437.552L1247 437.552L1247 444.398L1245.77 444.398ZM1238 462.671L1238 461.37L1245.18 461.37C1244.93 461.241 1244.57 461.045 1244.12 460.781L1238 456.624L1238 455.13L1247 455.13L1247 456.448L1239.91 456.448C1240.08 456.519 1240.37 456.671 1240.78 456.905L1247 461.177L1247 462.671L1238 462.671ZM1245.77 480.24L1245.77 477.542L1238 477.542L1238 476.101L1245.77 476.101L1245.77 473.394L1247 473.394L1247 480.24L1245.77 480.24ZM1242.14 498.205L1242.14 491.851C1241.14 491.874 1240.36 492.144 1239.82 492.659C1239.27 493.175 1239 493.884 1239 494.786C1239 495.8 1239.34 496.731 1240 497.581L1238.65 497.581C1238.08 496.79 1237.79 495.744 1237.79 494.443C1237.79 493.172 1238.2 492.173 1239.01 491.446C1239.83 490.72 1240.98 490.356 1242.47 490.356C1243.87 490.356 1245.01 490.752 1245.88 491.543C1246.77 492.34 1247.21 493.327 1247.21 494.505C1247.21 495.683 1246.83 496.594 1246.07 497.238C1245.31 497.883 1244.25 498.205 1242.9 498.205L1242.14 498.205ZM1243.36 496.729C1244.19 496.723 1244.84 496.521 1245.3 496.122C1245.77 495.729 1246 495.182 1246 494.479C1246 493.799 1245.76 493.222 1245.27 492.747C1244.78 492.272 1244.15 491.979 1243.36 491.868L1243.36 496.729Z" fill="#2F2F2F" fill-opacity="0.25"/>
<path d="M19.0001 422.842L19.0001 424.283L11.2306 424.283L11.2306 428.871L19.0001 428.871L19.0001 430.313L10.0001 430.313L10.0001 422.842L19.0001 422.842ZM17.6993 391.987L17.6993 392.023L23.1398 392.023L23.1398 393.464L10.0001 393.464L10.0001 392.023L11.5822 392.023L11.5822 391.987C10.3868 391.278 9.78919 390.241 9.78919 388.876C9.78919 387.716 10.1935 386.811 11.0021 386.16C11.8048 385.51 12.8829 385.185 14.2365 385.185C15.7423 385.185 16.9493 385.551 17.8575 386.283C18.7599 387.016 19.2111 388.018 19.2111 389.289C19.2111 390.455 18.7072 391.355 17.6993 391.987ZM14.0695 392.023L15.3263 392.023C16.0704 392.023 16.7033 391.782 17.2247 391.302C17.7404 390.816 17.9982 390.2 17.9982 389.456C17.9982 388.583 17.6642 387.9 16.9962 387.408C16.3283 386.91 15.3995 386.661 14.2101 386.661C13.2081 386.661 12.423 386.893 11.8546 387.356C11.2863 387.818 11.0021 388.445 11.0021 389.236C11.0021 390.074 11.295 390.748 11.881 391.258C12.4611 391.768 13.1906 392.023 14.0695 392.023ZM19.0001 349.98L19.0001 351.421L17.5939 351.421L17.5939 351.456C18.672 352.083 19.2111 353.006 19.2111 354.225C19.2111 355.121 18.9738 355.824 18.4992 356.334C18.0245 356.838 17.3947 357.09 16.6095 357.09C14.9279 357.09 13.9493 356.1 13.674 354.119L13.296 351.421C11.7667 351.421 11.0021 352.039 11.0021 353.275C11.0021 354.359 11.3712 355.338 12.1095 356.211L10.6329 356.211C10.0704 355.326 9.78919 354.307 9.78919 353.152C9.78919 351.037 10.9083 349.98 13.1466 349.98L19.0001 349.98ZM14.4474 351.421L14.7462 353.592C14.84 354.26 15.007 354.764 15.2472 355.104C15.4816 355.443 15.9005 355.613 16.504 355.613C16.9435 355.613 17.3038 355.458 17.5851 355.148C17.8605 354.831 17.9982 354.412 17.9982 353.891C17.9982 353.176 17.7492 352.587 17.2511 352.124C16.7472 351.655 16.1115 351.421 15.3439 351.421L14.4474 351.421ZM19.0001 320.804L10.0001 320.804L10.0001 316.884C10.0001 315.999 10.1964 315.302 10.589 314.792C10.9816 314.276 11.5177 314.019 12.1974 314.019C13.3634 314.019 14.0724 314.593 14.3244 315.741C14.5001 314.364 15.1945 313.676 16.4074 313.676C17.1398 313.676 17.755 313.96 18.2531 314.528C18.7511 315.091 19.0001 315.791 19.0001 316.629L19.0001 320.804ZM11.2306 319.362L13.7619 319.362L13.7619 317.2C13.7619 316.04 13.3107 315.46 12.4083 315.46C11.6232 315.46 11.2306 315.981 11.2306 317.024L11.2306 319.362ZM14.9923 319.362L17.7697 319.362L17.7697 316.866C17.7697 315.7 17.298 315.117 16.3546 315.117C15.4464 315.117 14.9923 315.771 14.9923 317.077L14.9923 319.362ZM19.0001 277.258L19.0001 278.559L11.8195 278.559C12.0714 278.687 12.4259 278.884 12.8829 279.147L19.0001 283.305L19.0001 284.799L10.0001 284.799L10.0001 283.48L17.0929 283.48C16.923 283.41 16.6329 283.258 16.2228 283.023L10.0001 278.752L10.0001 277.258L19.0001 277.258ZM19.0001 241.314L19.0001 242.747L11.2218 242.747L11.2218 244.839C14.1339 245.079 16.1788 245.492 17.3566 246.078C18.5343 246.658 19.1232 247.44 19.1232 248.425C19.1232 248.724 19.0822 248.981 19.0001 249.198L17.7609 249.198C17.8663 248.993 17.9191 248.77 17.9191 248.53C17.9191 247.241 15.2794 246.412 10.0001 246.043L10.0001 241.314L19.0001 241.314ZM19.0001 205.485L19.0001 206.927L17.5939 206.927L17.5939 206.962C18.672 207.589 19.2111 208.512 19.2111 209.73C19.2111 210.627 18.9738 211.33 18.4992 211.84C18.0246 212.344 17.3947 212.596 16.6095 212.596C14.9279 212.596 13.9494 211.605 13.674 209.625L13.296 206.927C11.7667 206.927 11.0021 207.545 11.0021 208.781C11.0021 209.865 11.3712 210.844 12.1095 211.717L10.633 211.717C10.0705 210.832 9.7892 209.812 9.7892 208.658C9.7892 206.543 10.9083 205.485 13.1466 205.485L19.0001 205.485ZM14.4474 206.927L14.7462 209.098C14.84 209.766 15.007 210.269 15.2472 210.609C15.4816 210.949 15.9005 211.119 16.504 211.119C16.9435 211.119 17.3039 210.964 17.5851 210.653C17.8605 210.337 17.9982 209.918 17.9982 209.396C17.9982 208.682 17.7492 208.093 17.2511 207.63C16.7472 207.161 16.1115 206.927 15.3439 206.927L14.4474 206.927Z" fill="#2F2F2F" fill-opacity="0.25"/>
<path d="M14.0001 0.113249L11.1134 3L14.0001 5.88675L16.8869 3L14.0001 0.113249ZM14.0001 171.887L16.8869 169L14.0001 166.113L11.1134 169L14.0001 171.887ZM13.5001 3L13.5001 169L14.5001 169L14.5001 3L13.5001 3Z" fill="#446F9D" fill-opacity="0.29"/>
<path d="M14 464.113L11.1133 467L14 469.887L16.8867 467L14 464.113ZM427.887 547L425 544.113L422.113 547L425 549.887L427.887 547ZM14 547L13.5 547L13.5 547.5L14 547.5L14 547ZM13.5 467L13.5 547L14.5 547L14.5 467L13.5 467ZM14 547.5L425 547.5L425 546.5L14 546.5L14 547.5Z" fill="#446F9D" fill-opacity="0.29"/>
<path d="M1243 92.8868L1245.89 90L1243 87.1133L1240.11 90L1243 92.8868ZM844.113 31L847 33.8867L849.887 31L847 28.1132L844.113 31ZM1243 31L1243.5 31L1243.5 30.5L1243 30.5L1243 31ZM1243.5 90L1243.5 31L1242.5 31L1242.5 90L1243.5 90ZM1243 30.5L847 30.5L847 31.5L1243 31.5L1243 30.5Z" fill="#446F9D" fill-opacity="0.29"/>
<path d="M1055.11 704L1058 706.887L1060.89 704L1058 701.113L1055.11 704ZM1243 531.113L1240.11 534L1243 536.887L1245.89 534L1243 531.113ZM1243 704L1243 704.5L1243.5 704.5L1243.5 704L1243 704ZM1058 704.5L1243 704.5L1243 703.5L1058 703.5L1058 704.5ZM1243.5 704L1243.5 534L1242.5 534L1242.5 704L1243.5 704Z" fill="#446F9D" fill-opacity="0.29"/>
</svg>
