<svg width="408" height="471" viewBox="0 0 408 471" fill="none" xmlns="http://www.w3.org/2000/svg">
<path d="M393.789 102.286C393.789 100.956 394.208 99.8926 395.046 99.0957C395.89 98.3047 397.006 97.9092 398.395 97.9092C399.906 97.9092 401.087 98.3223 401.937 99.1484C402.786 99.9746 403.211 101.091 403.211 102.497C403.211 103.839 402.798 104.885 401.972 105.635C401.146 106.391 400 106.769 398.535 106.769C397.1 106.769 395.948 106.361 395.081 105.547C394.22 104.738 393.789 103.651 393.789 102.286ZM401.998 102.392C401.998 101.466 401.682 100.733 401.049 100.194C400.422 99.6553 399.555 99.3857 398.448 99.3857C397.381 99.3857 396.54 99.6582 395.925 100.203C395.31 100.748 395.002 101.478 395.002 102.392C395.002 103.323 395.304 104.038 395.907 104.536C396.511 105.04 397.369 105.292 398.483 105.292C399.608 105.292 400.475 105.04 401.084 104.536C401.694 104.038 401.998 103.323 401.998 102.392ZM407.43 125.032L406.076 125.032C405.901 124.792 405.769 124.405 405.681 123.872C405.482 122.554 405.288 121.631 405.101 121.104C404.919 120.582 404.527 120.151 403.923 119.812C403.32 119.478 402.438 119.264 401.278 119.17L401.278 119.205C402.297 119.908 402.807 120.91 402.807 122.211C402.807 123.4 402.4 124.358 401.585 125.085C400.771 125.812 399.696 126.175 398.36 126.175C396.983 126.175 395.875 125.794 395.037 125.032C394.205 124.276 393.789 123.257 393.789 121.974C393.789 120.591 394.279 119.524 395.257 118.774C396.241 118.03 397.645 117.658 399.467 117.658C400.885 117.658 402.086 117.793 403.071 118.062C404.061 118.332 404.805 118.704 405.303 119.179C405.801 119.659 406.144 120.189 406.331 120.77C406.519 121.355 406.739 122.357 406.99 123.775C407.119 124.338 407.266 124.757 407.43 125.032ZM399.854 119.152L398.606 119.152C398.137 119.158 397.677 119.229 397.226 119.363C396.775 119.498 396.376 119.691 396.031 119.943C395.685 120.195 395.427 120.491 395.257 120.831C395.087 121.177 395.002 121.569 395.002 122.009C395.002 122.812 395.301 123.459 395.899 123.951C396.502 124.449 397.273 124.698 398.21 124.698C399.241 124.698 400.059 124.443 400.662 123.934C401.272 123.43 401.576 122.747 401.576 121.886C401.576 120.679 401.002 119.768 399.854 119.152ZM394 137.495L403 137.495L403 138.937L399.546 138.937L399.546 141.362C399.546 142.282 399.306 143.012 398.825 143.551C398.345 144.096 397.674 144.368 396.813 144.368C395.946 144.368 395.26 144.096 394.756 143.551C394.252 143.006 394 142.317 394 141.485L394 137.495ZM398.307 138.937L395.231 138.937L395.231 141.099C395.231 142.294 395.758 142.892 396.813 142.892C397.809 142.892 398.307 142.288 398.307 141.081L398.307 138.937ZM394 161.718L394 160.276L397.727 160.276L397.727 159.072C397.727 158.492 397.258 157.965 396.321 157.49L394 156.321L394 154.651L396.778 156.163C397.422 156.515 397.847 156.939 398.052 157.437C398.146 156.734 398.404 156.198 398.825 155.829C399.247 155.46 399.775 155.275 400.407 155.275C401.204 155.275 401.834 155.562 402.297 156.137C402.766 156.717 403 157.528 403 158.571L403 161.718L394 161.718ZM398.931 160.276L401.77 160.276L401.77 158.571C401.77 157.358 401.31 156.752 400.39 156.752C399.417 156.752 398.931 157.341 398.931 158.519L398.931 160.276ZM394.255 172.862L395.67 172.862C395.231 173.647 395.011 174.564 395.011 175.613C395.011 177.201 395.515 177.995 396.523 177.995C397.519 177.995 398.017 177.125 398.017 175.385L398.017 174.497L399.239 174.497L399.239 175.341C399.239 176.87 399.713 177.635 400.662 177.635C401.067 177.635 401.389 177.459 401.629 177.107C401.869 176.756 401.989 176.275 401.989 175.666C401.989 174.793 401.77 173.917 401.33 173.038L402.675 173.038C403.038 174.034 403.22 174.948 403.22 175.78C403.22 177.972 402.414 179.067 400.803 179.067C400.281 179.067 399.83 178.903 399.449 178.575C399.074 178.253 398.825 177.799 398.702 177.213L398.658 177.213C398.606 177.881 398.38 178.417 397.982 178.821C397.583 179.226 397.079 179.428 396.47 179.428C395.65 179.428 394.996 179.097 394.51 178.435C394.024 177.772 393.781 176.861 393.781 175.701C393.781 174.465 393.939 173.519 394.255 172.862ZM394 197.094L394 195.652L395.406 195.652L395.406 195.617C394.328 194.99 393.789 194.067 393.789 192.849C393.789 191.952 394.027 191.249 394.501 190.739C394.976 190.235 395.606 189.983 396.391 189.983C398.073 189.983 399.051 190.974 399.326 192.954L399.704 195.652C401.234 195.652 401.998 195.034 401.998 193.798C401.998 192.714 401.629 191.735 400.891 190.862L402.367 190.862C402.93 191.747 403.211 192.767 403.211 193.921C403.211 196.036 402.092 197.094 399.854 197.094L394 197.094ZM398.553 195.652L398.254 193.481C398.16 192.813 397.993 192.31 397.753 191.97C397.519 191.63 397.1 191.46 396.496 191.46C396.057 191.46 395.697 191.615 395.415 191.926C395.14 192.242 395.002 192.661 395.002 193.183C395.002 193.897 395.251 194.486 395.749 194.949C396.253 195.418 396.889 195.652 397.656 195.652L398.553 195.652ZM401.77 214.461L401.77 211.763L394 211.763L394 210.321L401.77 210.321L401.77 207.614L403 207.614L403 214.461L401.77 214.461ZM398.14 232.426L398.14 226.071C397.138 226.095 396.364 226.364 395.82 226.88C395.275 227.396 395.002 228.104 395.002 229.007C395.002 230.021 395.336 230.952 396.004 231.802L394.651 231.802C394.076 231.011 393.789 229.965 393.789 228.664C393.789 227.393 394.197 226.394 395.011 225.667C395.831 224.94 396.983 224.577 398.465 224.577C399.865 224.577 401.005 224.973 401.884 225.764C402.769 226.561 403.211 227.548 403.211 228.726C403.211 229.903 402.83 230.814 402.069 231.459C401.307 232.104 400.249 232.426 398.896 232.426L398.14 232.426ZM399.362 230.949C400.194 230.943 400.841 230.741 401.304 230.343C401.767 229.95 401.998 229.402 401.998 228.699C401.998 228.02 401.755 227.442 401.269 226.968C400.782 226.493 400.147 226.2 399.362 226.089L399.362 230.949ZM394 250.18L394 248.747L401.779 248.747L401.779 246.655C398.866 246.415 396.822 246.002 395.644 245.416C394.466 244.836 393.877 244.054 393.877 243.069C393.877 242.771 393.918 242.513 394 242.296L395.239 242.296C395.134 242.501 395.081 242.724 395.081 242.964C395.081 244.253 397.721 245.082 403 245.451L403 250.18L394 250.18ZM394 262.106L403 262.106L403 263.548L399.546 263.548L399.546 265.974C399.546 266.894 399.306 267.623 398.825 268.162C398.345 268.707 397.674 268.979 396.813 268.979C395.946 268.979 395.26 268.707 394.756 268.162C394.252 267.617 394 266.929 394 266.097L394 262.106ZM398.307 263.548L395.231 263.548L395.231 265.71C395.231 266.905 395.758 267.503 396.813 267.503C397.809 267.503 398.307 266.899 398.307 265.692L398.307 263.548ZM394 287.647L394 286.206L398.087 286.206L398.087 281.618L394 281.618L394 280.177L403 280.177L403 281.618L399.309 281.618L399.309 286.206L403 286.206L403 287.647L394 287.647ZM393.789 303.327C393.789 301.997 394.208 300.934 395.046 300.137C395.89 299.346 397.006 298.95 398.395 298.95C399.906 298.95 401.087 299.363 401.937 300.189C402.786 301.016 403.211 302.132 403.211 303.538C403.211 304.88 402.798 305.926 401.972 306.676C401.146 307.432 400 307.81 398.535 307.81C397.1 307.81 395.948 307.402 395.081 306.588C394.22 305.779 393.789 304.692 393.789 303.327ZM401.998 303.433C401.998 302.507 401.682 301.774 401.049 301.235C400.422 300.696 399.555 300.427 398.448 300.427C397.381 300.427 396.54 300.699 395.925 301.244C395.31 301.789 395.002 302.519 395.002 303.433C395.002 304.364 395.304 305.079 395.907 305.577C396.511 306.081 397.369 306.333 398.483 306.333C399.608 306.333 400.475 306.081 401.084 305.577C401.694 305.079 401.998 304.364 401.998 303.433ZM394 340.522L394 339.081L401.77 339.081L401.77 334.493L394 334.493L394 333.052L403 333.052L403 340.522L394 340.522ZM395.301 353.917L395.301 353.882L389.861 353.882L389.861 352.44L403 352.44L403 353.882L401.418 353.882L401.418 353.917C402.614 354.626 403.211 355.663 403.211 357.028C403.211 358.188 402.807 359.094 401.998 359.744C401.196 360.395 400.117 360.72 398.764 360.72C397.258 360.72 396.051 360.354 395.143 359.621C394.24 358.889 393.789 357.887 393.789 356.615C393.789 355.449 394.293 354.55 395.301 353.917ZM398.931 353.882L397.674 353.882C396.93 353.882 396.297 354.122 395.776 354.603C395.26 355.089 395.002 355.704 395.002 356.448C395.002 357.321 395.336 358.004 396.004 358.496C396.672 358.994 397.601 359.243 398.79 359.243C399.792 359.243 400.577 359.012 401.146 358.549C401.714 358.086 401.998 357.459 401.998 356.668C401.998 355.83 401.705 355.156 401.119 354.646C400.539 354.137 399.81 353.882 398.931 353.882ZM393.789 375.784C393.789 374.454 394.208 373.391 395.046 372.594C395.89 371.803 397.006 371.407 398.395 371.407C399.906 371.407 401.087 371.82 401.937 372.646C402.786 373.473 403.211 374.589 403.211 375.995C403.211 377.337 402.798 378.383 401.972 379.133C401.146 379.889 400 380.267 398.535 380.267C397.1 380.267 395.948 379.859 395.081 379.045C394.22 378.236 393.789 377.149 393.789 375.784ZM401.998 375.89C401.998 374.964 401.682 374.231 401.049 373.692C400.422 373.153 399.555 372.884 398.447 372.884C397.381 372.884 396.54 373.156 395.925 373.701C395.31 374.246 395.002 374.976 395.002 375.89C395.002 376.821 395.304 377.536 395.907 378.034C396.511 378.538 397.369 378.79 398.483 378.79C399.608 378.79 400.475 378.538 401.084 378.034C401.694 377.536 401.998 376.821 401.998 375.89ZM394 398.82L394 397.388L397.621 397.388C397.047 396.333 396.76 395.36 396.76 394.47C396.76 392.454 397.826 391.446 399.959 391.446L403 391.446L403 392.888L400.03 392.888C398.711 392.888 398.052 393.456 398.052 394.593C398.052 395.46 398.304 396.392 398.808 397.388L403 397.388L403 398.82L394 398.82ZM401.77 416.398L401.77 413.7L394 413.7L394 412.259L401.77 412.259L401.77 409.552L403 409.552L403 416.398L401.77 416.398ZM394 434.671L394 433.37L401.181 433.37C400.929 433.241 400.574 433.045 400.117 432.781L394 428.624L394 427.13L403 427.13L403 428.448L395.907 428.448C396.077 428.519 396.367 428.671 396.778 428.905L403 433.177L403 434.671L394 434.671ZM401.77 452.24L401.77 449.542L394 449.542L394 448.101L401.77 448.101L401.77 445.394L403 445.394L403 452.24L401.77 452.24ZM398.14 470.205L398.14 463.851C397.138 463.874 396.364 464.144 395.82 464.659C395.275 465.175 395.002 465.884 395.002 466.786C395.002 467.8 395.336 468.731 396.004 469.581L394.651 469.581C394.076 468.79 393.789 467.744 393.789 466.443C393.789 465.172 394.197 464.173 395.011 463.446C395.831 462.72 396.983 462.356 398.465 462.356C399.865 462.356 401.005 462.752 401.884 463.543C402.769 464.34 403.211 465.327 403.211 466.505C403.211 467.683 402.83 468.594 402.069 469.238C401.307 469.883 400.249 470.205 398.896 470.205L398.14 470.205ZM399.362 468.729C400.194 468.723 400.841 468.521 401.304 468.122C401.767 467.729 401.998 467.182 401.998 466.479C401.998 465.799 401.755 465.222 401.269 464.747C400.782 464.272 400.147 463.979 399.362 463.868L399.362 468.729Z" fill="#2F2F2F" fill-opacity="0.25"/>
<path d="M399 64.8868L401.887 62L399 59.1133L396.113 62L399 64.8868ZM0.113251 2.99998L3 5.88673L5.88675 2.99998L3 0.113228L0.113251 2.99998ZM399 3L399.5 3L399.5 2.5L399 2.5L399 3ZM399.5 62L399.5 3L398.5 3L398.5 62L399.5 62ZM399 2.5L3 2.49998L3 3.49998L399 3.5L399 2.5Z" fill="#446F9D" fill-opacity="0.29"/>
</svg>
