<svg width="141" height="83" viewBox="0 0 141 83" fill="none" xmlns="http://www.w3.org/2000/svg">
<path d="M20 54H58L54.7887 70L20 54Z" fill="#822337"/>
<path d="M27.2605 6.19807C27.6209 4.89911 28.8034 4 30.1514 4H137.394C139.27 4 140.685 5.70144 140.344 7.54556L132.207 51.5456C131.944 52.9679 130.704 54 129.257 54H17.9455C15.962 54 14.5245 52.1094 15.0547 50.1981L27.2605 6.19807Z" fill="#B82A4A"/>
<path d="M55.4703 56.1946C55.8318 54.8974 57.0135 54 58.3602 54H118.391C120.268 54 121.684 55.7032 121.341 57.548L117.068 80.548C116.804 81.9692 115.564 83 114.118 83H51.9504C49.9654 83 48.5276 81.1068 49.0605 79.1946L55.4703 56.1946Z" fill="#EACF3C"/>
<path d="M53.0835 21.1274C53.0835 21.9009 52.917 22.5938 52.584 23.2061C52.251 23.8148 51.7855 24.2892 51.1875 24.6294C50.5895 24.966 49.9199 25.1343 49.1787 25.1343C48.4554 25.1343 47.7965 24.9714 47.2021 24.6455C46.6113 24.3161 46.1512 23.856 45.8218 23.2651C45.4924 22.6707 45.3276 21.9993 45.3276 21.251C45.3276 20.4668 45.4941 19.7614 45.8271 19.1348C46.1602 18.5081 46.6274 18.0247 47.229 17.6846C47.8306 17.3408 48.5145 17.1689 49.2808 17.1689C50.0184 17.1689 50.6772 17.3337 51.2573 17.6631C51.841 17.9889 52.2904 18.4562 52.6055 19.0649C52.9242 19.6701 53.0835 20.3576 53.0835 21.1274ZM50.6235 21.1919C50.6235 20.5581 50.5018 20.0586 50.2583 19.6934C50.0148 19.3281 49.6818 19.1455 49.2593 19.1455C48.7974 19.1455 48.4375 19.321 48.1797 19.6719C47.9219 20.0228 47.793 20.5187 47.793 21.1597C47.793 21.7863 47.9201 22.2751 48.1743 22.626C48.4321 22.9769 48.7812 23.1523 49.2217 23.1523C49.4902 23.1523 49.7319 23.0736 49.9468 22.916C50.1616 22.7585 50.3281 22.5329 50.4463 22.2393C50.5645 21.9456 50.6235 21.5965 50.6235 21.1919ZM56.2578 21.1919V25H53.9697V19.5H57.9014V21.1919H56.2578ZM64.7603 22.0835C64.7603 22.6851 64.6582 23.2168 64.4541 23.6787C64.25 24.1406 63.9618 24.4987 63.5894 24.7529C63.217 25.0072 62.798 25.1343 62.3325 25.1343C61.688 25.1343 61.1992 24.8997 60.8662 24.4307H60.8447V27.5298H58.5566V19.5H60.8447V20.2466H60.8662C61.0488 19.9709 61.2852 19.756 61.5752 19.6021C61.8652 19.4445 62.1947 19.3657 62.5635 19.3657C63.2725 19.3657 63.8149 19.6021 64.1909 20.0747C64.5705 20.5474 64.7603 21.217 64.7603 22.0835ZM62.4399 22.1533C62.4399 21.806 62.3719 21.5339 62.2358 21.3369C62.1034 21.14 61.8975 21.0415 61.6182 21.0415C61.3747 21.0415 61.1777 21.1453 61.0273 21.353C60.877 21.5607 60.8018 21.8454 60.8018 22.207V22.3145C60.8018 22.6618 60.8662 22.9393 60.9951 23.147C61.124 23.3547 61.3174 23.4585 61.5752 23.4585C61.8509 23.4585 62.064 23.3457 62.2144 23.1201C62.3647 22.891 62.4399 22.5687 62.4399 22.1533ZM68.6758 25V24.1621H68.6543C68.2891 24.8102 67.7305 25.1343 66.9785 25.1343C66.4593 25.1343 66.0529 24.9803 65.7593 24.6724C65.4657 24.3644 65.3188 23.9526 65.3188 23.437C65.3188 22.3556 65.9831 21.729 67.3115 21.5571L68.6758 21.3799C68.6758 21.2008 68.5952 21.054 68.4341 20.9395C68.2729 20.8249 68.0563 20.7676 67.7842 20.7676C67.1683 20.7676 66.5184 20.943 65.8345 21.2939V19.8062C66.1317 19.6772 66.5041 19.5716 66.9517 19.4893C67.3993 19.4069 67.7824 19.3657 68.1011 19.3657C69.0356 19.3657 69.7124 19.5662 70.1313 19.9673C70.5539 20.3647 70.7651 21.0308 70.7651 21.9653V25H68.6758ZM67.3223 23.1309C67.3223 23.2812 67.3688 23.4048 67.4619 23.5015C67.5586 23.5981 67.6947 23.6465 67.8701 23.6465C68.11 23.6465 68.3034 23.557 68.4502 23.3779C68.6006 23.1989 68.6758 22.9697 68.6758 22.6904V22.481L67.9023 22.5884C67.5156 22.6528 67.3223 22.8337 67.3223 23.1309ZM75.3682 25V22.8569H74.0898V25H71.8018V19.5H74.0898V21.3691H75.3682V19.5H77.6562V25H75.3682ZM82.7803 25V22.019C82.6406 22.2876 82.4938 22.5365 82.3398 22.7656L80.7769 25H78.752V19.5H80.8574V22.3145C80.9541 22.1068 81.0884 21.8794 81.2603 21.6323L82.7158 19.5H84.8696V25H82.7803ZM89.3599 25V23.3081C88.8263 23.6089 88.2839 23.7593 87.7324 23.7593C87.1488 23.7593 86.6976 23.6017 86.3789 23.2866C86.0638 22.9679 85.9062 22.5275 85.9062 21.9653V19.5H88.0654V21.5142C88.0654 21.7039 88.1138 21.8525 88.2104 21.96C88.3071 22.0638 88.445 22.1157 88.624 22.1157C88.8675 22.1157 89.1128 22.0352 89.3599 21.874V19.5H91.6479V25H89.3599ZM94.7202 22.8999C94.7596 23.1362 94.8957 23.3224 95.1284 23.4585C95.3612 23.591 95.6691 23.6572 96.0522 23.6572C96.5858 23.6572 97.0907 23.5552 97.5669 23.3511V24.8013C97.0119 25.0233 96.3387 25.1343 95.5474 25.1343C94.5877 25.1343 93.8411 24.889 93.3076 24.3984C92.7741 23.9079 92.5073 23.2329 92.5073 22.3735C92.5073 21.7827 92.6237 21.2617 92.8564 20.8105C93.0928 20.3594 93.4401 20.0067 93.8984 19.7524C94.3604 19.4946 94.8688 19.3657 95.4238 19.3657C95.9932 19.3657 96.4801 19.4767 96.8848 19.6987C97.2894 19.9207 97.5955 20.2323 97.8032 20.6333C98.0145 21.0343 98.1201 21.5034 98.1201 22.0405V22.8999H94.7202ZM96.0952 21.7021C96.0952 21.0684 95.8678 20.7515 95.4131 20.7515C95.2233 20.7515 95.064 20.8392 94.9351 21.0146C94.8062 21.1865 94.731 21.4157 94.7095 21.7021H96.0952ZM102.481 25V22.8569H101.203V25H98.915V19.5H101.203V21.3691H102.481V19.5H104.77V25H102.481ZM109.432 25V22.8569H108.153V25H105.865V19.5H108.153V21.3691H109.432V19.5H111.72V25H109.432ZM118.933 22.1533C118.933 23.0807 118.652 23.8094 118.09 24.3394C117.531 24.8693 116.749 25.1343 115.743 25.1343C114.744 25.1343 113.965 24.8765 113.406 24.3608C112.851 23.8416 112.574 23.1273 112.574 22.2178C112.574 21.6341 112.704 21.1274 112.966 20.6978C113.227 20.2681 113.6 19.9386 114.083 19.7095C114.566 19.4803 115.123 19.3657 115.753 19.3657C116.405 19.3657 116.969 19.4857 117.445 19.7256C117.925 19.9655 118.292 20.2985 118.546 20.7246C118.804 21.1507 118.933 21.627 118.933 22.1533ZM116.613 22.1641C116.613 21.4157 116.326 21.0415 115.753 21.0415C115.181 21.0415 114.894 21.4336 114.894 22.2178C114.894 23.0449 115.184 23.4585 115.764 23.4585C116.33 23.4585 116.613 23.027 116.613 22.1641ZM121.758 22.8999C121.798 23.1362 121.934 23.3224 122.167 23.4585C122.399 23.591 122.707 23.6572 123.09 23.6572C123.624 23.6572 124.129 23.5552 124.605 23.3511V24.8013C124.05 25.0233 123.377 25.1343 122.585 25.1343C121.626 25.1343 120.879 24.889 120.346 24.3984C119.812 23.9079 119.545 23.2329 119.545 22.3735C119.545 21.7827 119.662 21.2617 119.895 20.8105C120.131 20.3594 120.478 20.0067 120.937 19.7524C121.398 19.4946 121.907 19.3657 122.462 19.3657C123.031 19.3657 123.518 19.4767 123.923 19.6987C124.327 19.9207 124.634 20.2323 124.841 20.6333C125.053 21.0343 125.158 21.5034 125.158 22.0405V22.8999H121.758ZM123.133 21.7021C123.133 21.0684 122.906 20.7515 122.451 20.7515C122.261 20.7515 122.102 20.8392 121.973 21.0146C121.844 21.1865 121.769 21.4157 121.748 21.7021H123.133ZM49.1143 40V36.0415H47.8359V40H45.5479V34.5H51.4023V40H49.1143ZM58.7017 37.0835C58.7017 37.6851 58.5996 38.2168 58.3955 38.6787C58.1914 39.1406 57.9032 39.4987 57.5308 39.7529C57.1584 40.0072 56.7394 40.1343 56.2739 40.1343C55.6294 40.1343 55.1406 39.8997 54.8076 39.4307H54.7861V42.5298H52.498V34.5H54.7861V35.2466H54.8076C54.9902 34.9709 55.2266 34.756 55.5166 34.6021C55.8066 34.4445 56.1361 34.3657 56.5049 34.3657C57.2139 34.3657 57.7563 34.6021 58.1323 35.0747C58.5119 35.5474 58.7017 36.217 58.7017 37.0835ZM56.3813 37.1533C56.3813 36.806 56.3133 36.5339 56.1772 36.3369C56.0448 36.14 55.8389 36.0415 55.5596 36.0415C55.3161 36.0415 55.1191 36.1453 54.9688 36.353C54.8184 36.5607 54.7432 36.8454 54.7432 37.207V37.3145C54.7432 37.6618 54.8076 37.9393 54.9365 38.147C55.0654 38.3547 55.2588 38.4585 55.5166 38.4585C55.7923 38.4585 56.0054 38.3457 56.1558 38.1201C56.3062 37.891 56.3813 37.5687 56.3813 37.1533ZM61.5376 37.8999C61.577 38.1362 61.7131 38.3224 61.9458 38.4585C62.1785 38.591 62.4865 38.6572 62.8696 38.6572C63.4032 38.6572 63.908 38.5552 64.3843 38.3511V39.8013C63.8293 40.0233 63.1561 40.1343 62.3647 40.1343C61.4051 40.1343 60.6585 39.889 60.125 39.3984C59.5915 38.9079 59.3247 38.2329 59.3247 37.3735C59.3247 36.7827 59.4411 36.2617 59.6738 35.8105C59.9102 35.3594 60.2575 35.0067 60.7158 34.7524C61.1777 34.4946 61.6862 34.3657 62.2412 34.3657C62.8105 34.3657 63.2975 34.4767 63.7021 34.6987C64.1068 34.9207 64.4129 35.2323 64.6206 35.6333C64.8319 36.0343 64.9375 36.5034 64.9375 37.0405V37.8999H61.5376ZM62.9126 36.7021C62.9126 36.0684 62.6852 35.7515 62.2305 35.7515C62.0407 35.7515 61.8813 35.8392 61.7524 36.0146C61.6235 36.1865 61.5483 36.4157 61.5269 36.7021H62.9126ZM70.5933 42.0034V40H67.1504V42.0034H65.3511V38.4585H65.8237C66.1746 37.8462 66.4342 37.2214 66.6025 36.584C66.7744 35.9466 66.8783 35.252 66.9141 34.5H71.5225V38.4585H72.4248V42.0034H70.5933ZM69.2451 35.9824H68.6167C68.5522 36.874 68.3285 37.6994 67.9453 38.4585H69.2451V35.9824ZM77.0171 40V36.0415H76.1416C76.0342 36.8651 75.9124 37.5347 75.7764 38.0503C75.6403 38.5659 75.481 38.967 75.2983 39.2534C75.1157 39.5399 74.8883 39.7476 74.6162 39.8765C74.3441 40.0018 73.9609 40.0645 73.4668 40.0645C73.1374 40.0645 72.8796 40.0322 72.6934 39.9678V38.5498C72.7936 38.5856 72.9082 38.6035 73.0371 38.6035C73.2878 38.6035 73.4883 38.471 73.6387 38.2061C73.7891 37.9375 73.9269 37.506 74.0522 36.9116C74.1776 36.3136 74.3029 35.5098 74.4282 34.5H79.3052V40H77.0171ZM86.5239 37.1533C86.5239 38.0807 86.2428 38.8094 85.6807 39.3394C85.1221 39.8693 84.3397 40.1343 83.3335 40.1343C82.3345 40.1343 81.5557 39.8765 80.9971 39.3608C80.4421 38.8416 80.1646 38.1273 80.1646 37.2178C80.1646 36.6341 80.2952 36.1274 80.5566 35.6978C80.818 35.2681 81.1904 34.9386 81.6738 34.7095C82.1572 34.4803 82.714 34.3657 83.3442 34.3657C83.9959 34.3657 84.5599 34.4857 85.0361 34.7256C85.516 34.9655 85.883 35.2985 86.1372 35.7246C86.395 36.1507 86.5239 36.627 86.5239 37.1533ZM84.2036 37.1641C84.2036 36.4157 83.9172 36.0415 83.3442 36.0415C82.7713 36.0415 82.4849 36.4336 82.4849 37.2178C82.4849 38.0449 82.7749 38.4585 83.355 38.4585C83.9207 38.4585 84.2036 38.027 84.2036 37.1641ZM93.8179 40L92.6309 37.2393H92.6094V40H90.4287V37.2393H90.4072L89.231 40H86.7817L88.3662 37.0835L86.7979 34.5H89.1826L90.4072 37.1533H90.4287V34.5H92.6094V37.1533H92.6309L93.8501 34.5H96.2349L94.6665 37.0835L96.2617 40H93.8179ZM98.7271 37.8999C98.7664 38.1362 98.9025 38.3224 99.1353 38.4585C99.368 38.591 99.6759 38.6572 100.059 38.6572C100.593 38.6572 101.097 38.5552 101.574 38.3511V39.8013C101.019 40.0233 100.346 40.1343 99.5542 40.1343C98.5946 40.1343 97.848 39.889 97.3145 39.3984C96.7809 38.9079 96.5142 38.2329 96.5142 37.3735C96.5142 36.7827 96.6305 36.2617 96.8633 35.8105C97.0996 35.3594 97.4469 35.0067 97.9053 34.7524C98.3672 34.4946 98.8757 34.3657 99.4307 34.3657C100 34.3657 100.487 34.4767 100.892 34.6987C101.296 34.9207 101.602 35.2323 101.81 35.6333C102.021 36.0343 102.127 36.5034 102.127 37.0405V37.8999H98.7271ZM100.102 36.7021C100.102 36.0684 99.8747 35.7515 99.4199 35.7515C99.2301 35.7515 99.0708 35.8392 98.9419 36.0146C98.813 36.1865 98.7378 36.4157 98.7163 36.7021H100.102ZM106.488 40V37.8569H105.21V40H102.922V34.5H105.21V36.3691H106.488V34.5H108.776V40H106.488ZM113.9 40V37.019C113.761 37.2876 113.614 37.5365 113.46 37.7656L111.897 40H109.872V34.5H111.978V37.3145C112.074 37.1068 112.208 36.8794 112.38 36.6323L113.836 34.5H115.99V40H113.9ZM119.062 37.8999C119.101 38.1362 119.237 38.3224 119.47 38.4585C119.703 38.591 120.011 38.6572 120.394 38.6572C120.928 38.6572 121.432 38.5552 121.909 38.3511V39.8013C121.354 40.0233 120.681 40.1343 119.889 40.1343C118.93 40.1343 118.183 39.889 117.649 39.3984C117.116 38.9079 116.849 38.2329 116.849 37.3735C116.849 36.7827 116.965 36.2617 117.198 35.8105C117.435 35.3594 117.782 35.0067 118.24 34.7524C118.702 34.4946 119.211 34.3657 119.766 34.3657C120.335 34.3657 120.822 34.4767 121.227 34.6987C121.631 34.9207 121.937 35.2323 122.145 35.6333C122.356 36.0343 122.462 36.5034 122.462 37.0405V37.8999H119.062ZM120.437 36.7021C120.437 36.0684 120.21 35.7515 119.755 35.7515C119.565 35.7515 119.406 35.8392 119.277 36.0146C119.148 36.1865 119.073 36.4157 119.051 36.7021H120.437ZM125.625 37.4058H123.789L123.499 32.2979H125.91L125.625 37.4058ZM125.996 39.0439C125.996 39.3626 125.88 39.624 125.647 39.8281C125.418 40.0322 125.11 40.1343 124.723 40.1343C124.347 40.1343 124.039 40.0304 123.799 39.8228C123.563 39.6151 123.445 39.3555 123.445 39.0439C123.445 38.7288 123.559 38.4746 123.789 38.2812C124.021 38.0843 124.333 37.9858 124.723 37.9858C125.103 37.9858 125.409 38.0843 125.642 38.2812C125.878 38.4746 125.996 38.7288 125.996 39.0439Z" fill="white"/>
<g filter="url(#filter0_d_57_126)">
<ellipse cx="21" cy="28.8121" rx="21" ry="21.1879" fill="#243A52"/>
<path d="M41.5 28.8121C41.5 40.242 32.3176 49.5 21 49.5C9.68235 49.5 0.5 40.242 0.5 28.8121C0.5 17.3823 9.68235 8.12427 21 8.12427C32.3176 8.12427 41.5 17.3823 41.5 28.8121Z" stroke="#243A52"/>
</g>
<path d="M37.908 28.8122C37.908 38.2404 30.3338 45.8758 21.0001 45.8758C11.6663 45.8758 4.09216 38.2404 4.09216 28.8122C4.09216 19.384 11.6663 11.7485 21.0001 11.7485C30.3338 11.7485 37.908 19.384 37.908 28.8122Z" fill="white" stroke="black"/>
<path fill-rule="evenodd" clip-rule="evenodd" d="M20.9203 27.7393L14.3684 21.5637L19.8412 28.7247C19.7864 28.883 19.7566 29.0532 19.7566 29.2304C19.7566 30.0772 20.437 30.7637 21.2763 30.7637C21.3166 30.7637 21.3564 30.7621 21.3959 30.759L23.2105 33.1334L24.8684 31.4607L22.7748 29.4873C22.7888 29.4038 22.796 29.3179 22.796 29.2304C22.796 28.3836 22.1156 27.6971 21.2763 27.6971C21.1537 27.6971 21.0345 27.7117 20.9203 27.7393Z" fill="black"/>
<rect x="20.7236" y="13.7576" width="0.552631" height="3.90303" rx="0.276316" fill="black"/>
<rect width="0.553872" height="3.89441" rx="0.276936" transform="matrix(0.864086 0.503344 -0.496664 0.867943 28.1842 15.709)" fill="black"/>
<rect width="0.556344" height="3.8771" rx="0.278172" transform="matrix(0.496664 0.867943 -0.864086 0.503343 33.7449 21.0061)" fill="black"/>
<rect x="35.921" y="28.5334" width="0.557577" height="3.86842" rx="0.278788" transform="rotate(90 35.921 28.5334)" fill="black"/>
<rect width="0.553872" height="3.8944" rx="0.276936" transform="matrix(-0.864086 0.503344 -0.496664 -0.867943 28.3865 41.6709)" fill="black"/>
<rect x="20.7236" y="39.9636" width="0.552631" height="3.90303" rx="0.276316" fill="black"/>
<rect width="0.553872" height="3.8944" rx="0.276936" transform="matrix(-0.864086 -0.503343 0.496664 -0.867943 13.4655 41.9497)" fill="black"/>
<rect width="0.556344" height="3.8771" rx="0.278172" transform="matrix(-0.496663 -0.867943 0.864086 -0.503344 8.01318 36.5435)" fill="black"/>
<rect x="5.80261" y="29.0908" width="0.557577" height="3.86842" rx="0.278788" transform="rotate(-90 5.80261 29.0908)" fill="black"/>
<rect width="0.556344" height="3.8771" rx="0.278172" transform="matrix(0.496663 -0.867943 0.864086 0.503344 7.73682 21.489)" fill="black"/>
<rect width="0.553872" height="3.89441" rx="0.276936" transform="matrix(0.864086 -0.503344 0.496664 0.867943 13.2632 15.709)" fill="black"/>
<rect width="0.556344" height="3.8771" rx="0.278172" transform="matrix(-0.496664 0.867943 -0.864086 -0.503344 33.771 36.1416)" fill="black"/>
<path fill-rule="evenodd" clip-rule="evenodd" d="M10.7538 4L5.25 7.20606L6.35526 9.13756L8.06124 8.1438L9.88142 11.3247L12.0649 10.0527L10.2447 6.8719L11.8591 5.9315L10.7538 4Z" fill="#243A52"/>
<path fill-rule="evenodd" clip-rule="evenodd" d="M23.2105 4H19.0658V5.95152L20.1711 5.95152L20.1711 9.01818H22.1053L22.1053 5.95152H23.2105V4Z" fill="#243A52"/>
<defs>
<filter id="filter0_d_57_126" x="0" y="0.624268" width="51" height="50.3757" filterUnits="userSpaceOnUse" color-interpolation-filters="sRGB">
<feFlood flood-opacity="0" result="BackgroundImageFix"/>
<feColorMatrix in="SourceAlpha" type="matrix" values="0 0 0 0 0 0 0 0 0 0 0 0 0 0 0 0 0 0 127 0" result="hardAlpha"/>
<feOffset dx="5" dy="-3"/>
<feGaussianBlur stdDeviation="2"/>
<feComposite in2="hardAlpha" operator="out"/>
<feColorMatrix type="matrix" values="0 0 0 0 0 0 0 0 0 0 0 0 0 0 0 0 0 0 0.25 0"/>
<feBlend mode="normal" in2="BackgroundImageFix" result="effect1_dropShadow_57_126"/>
<feBlend mode="normal" in="SourceGraphic" in2="effect1_dropShadow_57_126" result="shape"/>
</filter>
</defs>
</svg>
